<?xml version="1.0" encoding="UTF-8"?>
<svg id="Calque_2" data-name="Calque 2" xmlns="http://www.w3.org/2000/svg" viewBox="0 0 49.47 13.82">
  <defs>
    <style>
      .cls-1 {
        fill: none;
      }

      .cls-2 {
        fill: #ea877b;
      }

      .cls-3 {
        fill: #e9ac41;
      }

      .cls-4 {
        fill: #b595c0;
      }

      .cls-5 {
        fill: #9db1aa;
      }

      .cls-6 {
        fill: #bdccd4;
      }

      .cls-7 {
        fill: #333957;
        font-family: CoconPro-LightIta, CoconPro;
        font-size: 3.47px;
        font-style: italic;
        font-weight: 300;
      }
    </style>
  </defs>
  <g id="Calque_1-2" data-name="Calque 1">
    <path class="cls-1" d="m38.91,5.13v.46c.83.03,1.65.07,2.45.1.13-.14.25-.29.35-.46-.91-.04-1.85-.07-2.8-.1Z"/>
    <path class="cls-1" d="m2.67,5.86c-.44.04-.86.08-1.28.12,0,.23-.02.44-.02.66.47-.06.96-.12,1.47-.18l-.17-.6Z"/>
    <path class="cls-1" d="m6.53,5.56c-.39.03-.78.05-1.16.08l-.16.58c.44-.04.88-.08,1.34-.12,0-.17-.01-.36-.02-.54Z"/>
    <path class="cls-1" d="m42.05,3.88c0-1.68-.94-2.62-2.23-2.62h-.33c-.19,0-.36.04-.57.08v3.78c.95.03,1.89.07,2.8.1.21-.38.34-.84.34-1.35Z"/>
    <path class="cls-1" d="m2.02,3.56c-.12-.42-.28-.91-.38-1.2-.11.72-.2,2.22-.25,3.62.42-.04.84-.08,1.28-.12l-.65-2.31Z"/>
    <path class="cls-1" d="m6.32,2.37c-.09.26-.22.6-.32.97l-.63,2.31c.38-.03.77-.05,1.16-.08-.05-1.24-.14-2.67-.21-3.2Z"/>
    <path class="cls-1" d="m11.19,4.94h2.47c-.27-1.06-.82-2.32-1.24-3.03-.47.78-.97,1.98-1.24,3.03Z"/>
    <path class="cls-1" d="m30.97,10.87c-.12,0-.22.05-.3.14-.08.09-.14.24-.18.43l.46-.22c.18-.09.31-.16.39-.23-.09-.08-.21-.12-.36-.12Z"/>
    <path class="cls-1" d="m38.91,5.67c0,.44.2.64.76.64h.25c.58,0,1.07-.23,1.44-.61-.8-.04-1.62-.07-2.45-.1v.08Z"/>
    <path class="cls-4" d="m6,3.34c.1-.37.23-.71.32-.97.07.53.16,1.96.21,3.2.45-.03.9-.06,1.36-.09-.07-1.44-.17-2.92-.24-3.66-.11-1.13-.61-1.7-1.37-1.7h-.16c-.28.28-.72,1.1-1.07,2.41l-.79,2.91c-.03.1-.05.2-.07.3.39-.03.79-.06,1.19-.09l.63-2.31Z"/>
    <path class="cls-4" d="m1.64,2.36c.1.29.26.78.38,1.2l.65,2.31c.42-.04.85-.07,1.28-.11-.07-.29-.16-.62-.28-1.03l-.95-3.21C2.46.63,1.79.11.84.11h-.29C.34,1.46.11,4.17.03,6.12c.44-.05.9-.09,1.37-.14.05-1.4.14-2.91.25-3.62Z"/>
    <path class="cls-4" d="m.86,10.12h.48c0-1.04.01-2.46.03-4-.48.15-.93.3-1.36.46,0,.32,0,.67,0,.96,0,1.65.35,2.58.86,2.58Z"/>
    <path class="cls-4" d="m4.1,8.33h.37c.19-.32.4-.88.56-1.46l.18-.64c-.83.08-1.62.16-2.37.24l.16.56c.25.89.65,1.31,1.1,1.31Z"/>
    <path class="cls-4" d="m6.58,7.24c0,.74.36,1.09.88,1.09h.52c0-.59-.03-1.43-.07-2.33-.46.03-.92.07-1.36.11.02.46.03.86.03,1.13Z"/>
    <path class="cls-4" d="m1.37,6.64c0-.22.01-.44.02-.66-.47.05-.92.09-1.37.14-.01.26-.02.49-.02.72.43-.07.88-.13,1.36-.19Z"/>
    <path class="cls-4" d="m2.84,6.46c.75-.08,1.53-.16,2.37-.24l.16-.58c-.4.03-.8.06-1.19.09-.04.17-.08.34-.12.54-.02-.15-.06-.33-.11-.53-.44.03-.86.07-1.28.11l.17.6Z"/>
    <path class="cls-4" d="m6.55,6.11c.45-.04.9-.07,1.36-.11,0-.17-.02-.35-.02-.52-.46.03-.91.06-1.36.09,0,.19.02.37.02.54Z"/>
    <path class="cls-3" d="m13.73,1.22c-.22-.36-.65-.69-1.29-.69h-.65c-.82.86-1.75,3.12-2.28,4.85,1.84-.1,3.78-.18,5.8-.25-.49-1.62-1.12-3.15-1.57-3.91Zm-2.54,3.72c.27-1.04.77-2.24,1.24-3.03.42.7.97,1.97,1.24,3.03h-2.47Z"/>
    <path class="cls-3" d="m9.81,8.07h.62c.12-.64.26-1.29.42-1.93h3.18c.08.32.15.7.22,1.2.06.36.41.73,1.07.73h.65c-.1-.77-.3-1.62-.54-2.47-2.15.08-4.19.19-6.08.31-.17.63-.28,1.15-.28,1.44,0,.46.21.73.73.73Z"/>
    <path class="cls-3" d="m15.3,5.13c-2.02.07-3.96.15-5.8.25-.05.18-.11.35-.15.52,1.89-.12,3.93-.23,6.08-.31-.04-.15-.08-.31-.13-.46Z"/>
    <path class="cls-6" d="m19,3.73h1.39c.49,0,.9-.48.9-.85v-.47h-5.06c-.62,0-.91.46-.91.83v.5h2.17v1.33c.5-.01,1.01-.03,1.52-.04v-1.3Z"/>
    <path class="cls-6" d="m18.4,9.95h.61v-4.47c-.51.01-1.02.03-1.52.04v3.42c0,.67.39,1.01.91,1.01Z"/>
    <path class="cls-6" d="m19,5.03c-.51.01-1.02.02-1.52.04v.45c.5-.02,1.01-.03,1.52-.04v-.45Z"/>
    <path class="cls-2" d="m28.25,4.94v-2.69c0-.48-.42-.79-.8-.79h-.68v3.04h-3.05v-2.24c0-.43-.32-.79-.75-.79h-.74v3.52c1.64-.02,3.3-.04,5-.04.34,0,.68,0,1.02,0Z"/>
    <path class="cls-2" d="m23.15,8.99h.58v-3.23h3.04v2.22c0,.66.44,1.01.88,1.01h.6v-3.62c-.34,0-.68,0-1.02,0-1.7,0-3.36.02-5,.04v2.57c0,.66.41,1.01.91,1.01Z"/>
    <path class="cls-2" d="m28.25,5.38v-.43c-.34,0-.68,0-1.02,0-1.7,0-3.36.02-5,.04v.44c1.63-.02,3.29-.04,5-.04.34,0,.68,0,1.02,0Z"/>
    <path class="cls-5" d="m31.79,1.01c0-.54-.36-.89-.7-.89h-.59v5.56c.43,0,.86,0,1.29.01V1.01Z"/>
    <path class="cls-5" d="m31.3,8.48h.5v-2.31c-.43,0-.86-.01-1.29-.02v1.21c0,.73.41,1.11.8,1.11Z"/>
    <path class="cls-5" d="m31.79,5.69c-.43,0-.86-.01-1.29-.01v.48c.43,0,.86.01,1.29.02v-.49Z"/>
    <path class="cls-3" d="m34.48,1.66c0-.75-.25-1.1-.72-1.1h-.48v4.43c.4,0,.8.01,1.2.02V1.66Z"/>
    <path class="cls-3" d="m35.4,8.16h.45c.96,0,1.22-.43,1.22-1.09v-.52c-.21.11-.66.27-1.22.27h-.3c-.83,0-1.05-.38-1.08-1.38-.4,0-.8-.02-1.2-.02.02,1.76.77,2.73,2.12,2.73Z"/>
    <path class="cls-3" d="m34.48,5.27v-.26c-.4,0-.8-.01-1.2-.02v.38s0,.04,0,.06c.4,0,.8.02,1.2.02,0-.06,0-.12,0-.19Z"/>
    <path class="cls-4" d="m38.91,1.34c.21-.03.39-.08.57-.08h.33c1.3,0,2.23.94,2.23,2.62,0,.5-.12.96-.34,1.35.54.02,1.07.05,1.59.07.18-.49.29-1.04.29-1.63,0-2.52-1.82-3.67-3.54-3.67h-.78c-.57,0-1.5.14-1.86.29v4.79c.51.01,1.01.03,1.51.05V1.34Z"/>
    <path class="cls-4" d="m39.5,7.62h.63c1.28,0,2.36-.72,2.96-1.84-.56-.03-1.13-.06-1.72-.09-.37.38-.86.61-1.44.61h-.25c-.56,0-.76-.2-.76-.64v-.08c-.5-.02-1-.04-1.51-.05v.42c0,1.17.81,1.67,2.09,1.67Z"/>
    <path class="cls-4" d="m41.36,5.69c.58.03,1.15.06,1.72.09.08-.15.16-.31.22-.48-.52-.02-1.05-.05-1.59-.07-.1.17-.22.32-.35.46Z"/>
    <path class="cls-4" d="m38.91,5.13c-.5-.02-1-.03-1.51-.05v.45c.51.02,1.01.03,1.51.05v-.46Z"/>
    <path class="cls-2" d="m48.64,4.89v-.54h-2.9c0-.47.03-1.21.11-1.76h2.59c.69,0,1.01-.26,1.01-.79v-.51h-3.94c-.62,0-1.03.23-1.16,1.13-.09.6-.14,1.41-.14,2.12v.8c1.28.07,2.52.14,3.71.22.47-.04.72-.24.72-.67Z"/>
    <path class="cls-2" d="m47.01,8.88h.8c1.32,0,1.63-.33,1.64-.94v-.53c-.53.12-1.09.17-1.64.17h-.48c-1.17,0-1.6-.25-1.6-1.56v-.08c-.5-.03-1.01-.07-1.53-.1v.1c0,1.93.97,2.94,2.81,2.94Z"/>
    <path class="cls-2" d="m45.74,5.58h1.99c.07,0,.13-.01.19-.02-1.19-.08-2.43-.15-3.71-.22v.5c.52.03,1.03.06,1.53.1v-.36Z"/>
    <text class="cls-7" transform="translate(25.41 12.84)"><tspan x="0" y="0">Designer UX UI</tspan></text>
  </g>
</svg>