<?xml version="1.0" encoding="UTF-8"?>
<svg id="Calque_2" data-name="Calque 2" xmlns="http://www.w3.org/2000/svg" viewBox="0 0 564.17 1003.17">
  <defs>
    <style>
      .cls-1 {
        fill: #f7f4ef;
      }

      .cls-2 {
        fill: #fab6a3;
      }

      .cls-3 {
        fill: #f6b968;
      }

      .cls-4 {
        fill: #c5d7d1;
      }

      .cls-5 {
        fill: #5e9793;
      }
    </style>
  </defs>
  <g id="Calque_1-2" data-name="Calque 1">
    <g>
      <path class="cls-1" d="m.09,526.56c0-13.32,0-26.64,0-39.96,1.61-1.52,3.78-2.76,4.76-4.62,26.99-51.01,67.51-81.48,126.47-85.38,44.21-2.93,88.36-1.94,132.04-15.75,33.14-10.48,67.97-42.98,66.92-78.07-1.85-61.37-28.59-108.63-84.27-136.66-29.41-14.81-62.1-14.69-94.25-15.4-2.96,0-5.91-.01-8.87-.02-21.34,0-42.68,0-64.02-.01-3.27,0-6.54,0-9.81,0-1.72.01-3.44.02-5.15.04-.61.02-1.23.04-1.84.06-21.21-.01-41.76,4.05-61.98,10.12,0-10.66,0-21.31,0-31.97,30.02-5.18,59.99-10.59,90.06-15.49,53.45-8.71,106.62-11.11,159.17,6.24,15.13,5,33.14,10.83,42.66-7.34,9.01-17.21-5.51-29.12-17.63-37.64-51.45-36.15-110.09-28.55-167.07-22.84C66.11,56.02,25.05,65.61.09,104.98.09,71.18.14,37.38,0,3.58,0,.58.59,0,3.58,0,189.25.09,374.93.09,560.6,0c2.99,0,3.58.58,3.58,3.58-.09,332-.09,664,0,996.01,0,2.99-.58,3.58-3.58,3.58-185.67-.09-371.34-.09-557.01,0-2.99,0-3.61-.58-3.58-3.58.18-18.48.09-36.96.09-55.44,26.53,12.71,52.53,26.7,79.72,37.77,27,10.99,55.93,17.94,85.06,12.37,43.94-8.39,86.87-20,119.48-54.57,11.98-12.7,15.78-27.65,10.98-42.18-5.24-15.87-20.8-20.4-36.95-18.54-44.8,5.17-81.66,33.51-125.73,42.5-34.75,7.09-66.69,6.29-97.42-10.17-12.87-6.89-23.49-17.96-35.14-27.13,0-15.65,0-31.3,0-46.95,69.13,28.74,138.68,28.69,208.49,2.78,44.38-16.47,57.54-39.14,44.98-75.16-10.39-29.78-34.38-47.1-58.76-63.06-55.08-36.07-78.2-101.01-37.49-163.37,10.99-16.83,20.83-36.13,13.04-56.99-7.43-19.89-52.47-32.35-81.26-23.24-37.75,11.94-62.34,41.64-89.01,68.35Zm281.58,89.62c27.06,6.38,54.48,6.25,81.59,1.96,31.31-4.95,61.57-13.71,90.42-27.8,29.5-14.41,55.56-33.15,78.25-56.44,16.75-17.19,32.4-34.16,31.68-62.25-1.76-68.38-.26-136.84-1-205.26-.09-8.05,2.23-17.23-3.43-24.97-23.5-32.14-54.58-55.22-91.26-68.73-23.39-8.62-48.5-16.71-74.64-6.9-17.35,6.51-31.27,16.32-30.42,36.33.77,18.1,5.56,35.98,7.41,54.08,2.79,27.25-4.11,53.18-14.01,78.17-9.61,24.25-18.44,49.62-45.66,60.75-24.12,9.86-48.86,19.14-67.4,38.22-36.4,37.45-51.25,87.31-20.66,140.28,12.65,21.92,32.24,34.63,56.06,41.54,1.02.34,2.04.69,3.06,1.03Zm281.38,114.69c0-46.78.02-93.56-.03-140.35,0-3.7-.5-7.4-.77-11.11-2.79,2.8-5.71,5.48-8.36,8.42-17.79,19.74-27.77,45.99-50.97,61.22-39.76,26.12-83.74,20.15-127.42,16.96-22.66-1.65-47.21-1.64-65.3,10.94-29.51,20.5-34.73,48.21-18.47,88.36,17.71,43.73,39.71,86.34,84.75,107.24,54.54,25.31,112.72,24.89,171.11,14.4,12.31-2.21,16.18-7.69,15.87-20.74-1.06-45.09-.41-90.22-.41-135.34ZM430.79,9.17c-4.15,0-8.34-.33-12.46.05-24.47,2.25-38.89,15.9-42.77,39.87-1.7,10.5,2.45,20.32,9.15,28.51,21.01,25.66,46.93,45.45,76.73,59.41,20.85,9.77,41.44,6.57,58.88-9.35,15.17-13.85,20.05-32.26,12.93-50.46-20.74-52.96-44.82-68.07-102.46-68.03Zm-41.9,907.6c-11.29,1.58-22.31,2.96-22.47,17.82-.18,16.46,17.24,34.71,32.99,34.48,13.65-.2,21.3-7.77,20.72-21.11-.85-19.43-12.34-29.37-31.24-31.19Z"/>
      <path class="cls-2" d="m151.76,150.72c32.16.71,64.84.59,94.25,15.4,55.67,28.03,82.42,75.28,84.27,136.66,1.06,35.1-33.77,67.6-66.92,78.07-43.69,13.81-87.84,12.82-132.04,15.75-58.96,3.9-99.49,34.37-126.47,85.38-.98,1.86-3.15,3.09-4.76,4.62,0-108.56,0-217.12,0-325.68,20.22-6.08,40.77-10.14,61.98-10.12.61-.02,1.23-.04,1.84-.06,1.72-.01,3.44-.02,5.15-.04,3.27,0,6.54,0,9.81,0,21.34,0,42.68,0,64.02.02,2.96,0,5.91.01,8.87.02Z"/>
      <path class="cls-5" d="m.09,526.56c26.67-26.72,51.26-56.41,89.01-68.35,28.78-9.1,73.83,3.35,81.26,23.24,7.79,20.86-2.05,40.16-13.04,56.99-40.71,62.36-17.59,127.3,37.49,163.37,24.38,15.96,48.37,33.29,58.76,63.06,12.56,36.01-.6,58.68-44.98,75.16-69.81,25.91-139.36,25.96-208.49-2.78v-310.69Z"/>
      <path class="cls-3" d="m.09,884.2c11.65,9.17,22.27,20.24,35.14,27.13,30.73,16.45,62.67,17.26,97.42,10.17,44.07-8.99,80.93-37.33,125.73-42.5,16.15-1.86,31.71,2.67,36.95,18.54,4.8,14.53,1,29.48-10.98,42.18-32.61,34.57-75.54,46.18-119.48,54.57-29.14,5.56-58.06-1.38-85.06-12.37-27.19-11.07-53.2-25.06-79.72-37.77,0-19.98,0-39.96,0-59.94Z"/>
      <path class="cls-4" d="m.09,104.98c24.96-39.36,66.02-48.96,107.19-53.09,56.98-5.72,115.62-13.31,167.07,22.84,12.12,8.52,26.64,20.43,17.63,37.64-9.51,18.17-27.52,12.34-42.66,7.34-52.55-17.35-105.73-14.95-159.17-6.24-30.06,4.9-60.04,10.31-90.06,15.49,0-7.99,0-15.98,0-23.98Z"/>
      <path class="cls-3" d="m278.61,615.14c-23.82-6.92-43.41-19.63-56.06-41.54-30.58-52.97-15.74-102.83,20.66-140.28,18.54-19.07,43.27-28.36,67.4-38.22,27.22-11.13,36.05-36.5,45.66-60.75,9.9-24.99,16.8-50.92,14.01-78.17-1.85-18.1-6.65-35.98-7.41-54.08-.85-20.01,13.07-29.82,30.42-36.33,26.14-9.81,51.24-1.71,74.64,6.9,36.68,13.51,67.75,36.6,91.26,68.73,5.66,7.74,3.35,16.92,3.43,24.97.74,68.42-.76,136.88,1,205.26.72,28.09-14.93,45.06-31.68,62.25-22.69,23.29-48.75,42.03-78.25,56.44-28.85,14.09-59.11,22.85-90.42,27.8-27.11,4.29-54.53,4.42-81.59-1.96-1.02-.34-2.04-.69-3.06-1.03Z"/>
      <path class="cls-4" d="m563.06,730.86c0,45.12-.65,90.25.41,135.34.31,13.05-3.56,18.53-15.87,20.74-58.39,10.49-116.57,10.91-171.11-14.4-45.04-20.9-67.04-63.51-84.75-107.24-16.26-40.15-11.05-67.86,18.47-88.36,18.1-12.57,42.64-12.59,65.3-10.94,43.68,3.19,87.66,9.16,127.42-16.96,23.19-15.24,33.18-41.48,50.97-61.22,2.64-2.93,5.56-5.62,8.36-8.42.27,3.7.77,7.4.77,11.11.05,46.78.03,93.56.04,140.35Z"/>
      <path class="cls-2" d="m430.79,9.17c57.64-.03,81.73,15.07,102.46,68.03,7.12,18.19,2.25,36.6-12.93,50.46-17.44,15.92-38.03,19.11-58.88,9.35-29.8-13.96-55.72-33.75-76.73-59.41-6.7-8.18-10.85-18.01-9.15-28.51,3.88-23.97,18.31-37.61,42.77-39.87,4.12-.38,8.3-.05,12.46-.05Z"/>
      <path class="cls-5" d="m388.88,916.78c18.9,1.82,30.39,11.76,31.24,31.19.58,13.34-7.07,20.92-20.72,21.11-15.75.23-33.17-18.02-32.99-34.48.16-14.87,11.18-16.24,22.47-17.82Z"/>
      <path class="cls-4" d="m78.87,150.69c-3.27,0-6.54,0-9.81,0,3.27,0,6.54,0,9.81,0Z"/>
      <path class="cls-4" d="m151.76,150.72c-2.96,0-5.91-.01-8.87-.02,2.96,0,5.91.01,8.87.02Z"/>
      <path class="cls-2" d="m278.61,615.14c1.02.34,2.04.69,3.06,1.03-1.02-.35-2.04-.69-3.06-1.03Z"/>
      <path class="cls-4" d="m63.91,150.74c-.61.02-1.23.04-1.84.06.61-.02,1.23-.04,1.84-.06Z"/>
    </g>
  </g>
</svg>