<svg width="48" height="95" viewBox="0 0 48 95" fill="none" xmlns="http://www.w3.org/2000/svg">
<path d="M18.7918 69.875C17.7456 62.9777 15.8742 56.2356 13.1865 49.7969C12.8553 49.0027 11.5748 49.4112 11.9085 50.2098C14.55 56.539 16.422 63.169 17.4505 69.9503C17.5791 70.7996 18.9217 70.7312 18.7918 69.875Z" fill="#9DB1AA"/>
<path d="M25.1149 35.4999C27.6246 52.2481 20.0206 68.3352 10.1855 81.4026C7.04307 85.578 3.64859 89.5551 0.172416 93.4556C-0.402619 94.0996 0.597357 94.9951 1.17303 94.3498C12.8042 81.3019 24.0155 66.5226 26.4727 48.7092C27.08 44.3027 27.1148 39.8266 26.4549 35.4245C26.3276 34.5759 24.9869 34.6443 25.1149 35.4999Z" fill="#9DB1AA"/>
<path d="M13.3388 78.6818C16.6212 75.882 19.9397 73.0429 22.4235 69.5148C24.9579 65.9145 26.5456 61.7018 29.2074 58.1933C31.4936 55.1801 34.4885 52.797 37.351 50.3246C40.5637 47.5495 43.6459 44.6236 46.5851 41.5604C47.0854 41.6889 47.2304 42.3184 47.2728 42.8327C47.934 50.8027 46.3077 59.047 42.0912 65.8429C37.8747 72.6382 30.9793 77.8623 23.1435 79.4607C20.2468 80.0516 15.6694 80.2923 12.8651 79.3543" fill="#9DB1AA"/>
<path d="M10.3015 82.664C8.90069 80.5836 7.10402 78.9985 5.60247 77.2677C4.10092 75.5362 2.90842 73.4843 2.47334 71.2342C2.0465 69.0278 2.35998 66.7555 2.57024 64.5187C3.02685 59.6639 2.96668 54.6367 1.21625 50.0859C3.38783 50.6698 5.10153 52.3315 6.49606 54.0953C12.7492 62.0064 14.266 73.3919 10.3015 82.664Z" fill="#9DB1AA"/>
<path d="M9.85008 50.0621C6.61646 46.3814 3.31698 42.593 1.58237 38.0105C1.20366 37.0086 0.900311 35.9567 0.927543 34.8858C0.954775 33.8161 1.35059 32.7161 2.17071 32.0277C2.65708 31.6199 3.25808 31.3786 3.79955 31.0486C4.67224 30.5166 5.46133 29.725 6.47904 29.6319C7.7735 29.5141 8.8615 30.5749 9.5993 31.6458C10.5138 32.9751 11.2034 34.4463 11.7899 35.9497C13.3966 40.0712 14.2483 44.4853 14.2914 48.9095" fill="#B582BF"/>
<path d="M10.6032 47.3255C8.47722 44.6884 7.15679 41.5067 5.89716 38.3618C5.02638 36.1876 4.16573 33.985 3.80855 31.6697C3.62996 30.5082 3.58372 29.2986 3.93331 28.1764C4.28289 27.0536 5.07768 26.0251 6.18278 25.6223C7.13589 25.2753 8.22137 25.4273 9.13712 25.8655C10.0516 26.3044 10.816 27.0061 11.4879 27.766C13.9268 30.5222 15.2826 34.0845 16.0622 37.681C16.8589 41.3535 17.0318 45.4496 14.9964 48.6085" fill="#FFC4BE"/>
<path d="M11.6243 47.7739C11.9732 45.7416 11.6053 43.6473 10.9878 41.6803C10.371 39.7126 9.50716 37.8317 8.82763 35.8856C8.50718 34.966 8.22409 33.9939 8.36659 33.0313C8.39952 32.8084 8.46538 32.5728 8.64017 32.4316C8.95049 32.1821 9.41216 32.353 9.75098 32.5633C12.2791 34.1345 13.4127 37.263 13.6584 40.2294C13.8794 42.9057 13.5178 45.6295 12.6059 48.1564" fill="#B582BF"/>
<path d="M7.87774 48.5512C7.26977 47.1877 12.4312 46.3809 14.5084 46.0858C15.0815 46.0047 15.7205 45.9597 16.1841 46.3062C16.5261 46.5601 16.7034 46.9825 16.7813 47.4018C16.9915 48.5278 16.5831 49.6962 15.9384 50.643C15.0593 51.9324 13.6059 52.9444 12.0486 52.8564C10.9784 52.7956 9.97776 52.2174 9.27036 51.4131C8.5636 50.6081 8.12852 49.593 7.87774 48.5512Z" fill="#333957"/>
<path d="M19.0779 21.6329C15.1831 19.0655 13.2908 14.0384 13.8854 9.41091C14.1787 7.12914 15.0621 4.84926 16.748 3.28375C18.6991 1.47378 21.4401 0.83605 24.0644 0.392741C27.1296 -0.125931 30.5387 -0.403314 33.1003 1.35789C35.771 3.19509 36.712 6.82895 36.2301 10.0347C35.7482 13.2405 34.1029 16.1353 32.4867 18.9465" fill="#FFC4BE"/>
<path d="M28.1478 35.4988C29.111 33.6515 30.5334 32.0815 31.5726 30.2766C34.5681 25.0798 34.0729 18.6619 35.3256 12.7951C35.6562 11.2479 36.1191 9.7128 36.893 8.33284C37.2261 7.73881 37.6352 7.15744 38.2273 6.82179C39.0804 6.33795 40.1823 6.46271 41.0398 6.93832C41.8973 7.41393 42.5458 8.19352 43.0898 9.00921C44.8086 11.5886 45.6629 14.7 45.7072 17.7994C45.7516 20.8981 45.0081 23.9823 43.7446 26.8125C42.9555 28.5794 41.9537 30.2716 40.6092 31.6629C37.5408 34.8395 33.0653 36.134 28.8064 37.3037" fill="#EEDAF2"/>
<mask id="mask0_278_3648" style="mask-type:luminance" maskUnits="userSpaceOnUse" x="29" y="8" width="10" height="26">
<path d="M29.4104 8.64436H38.3621V33.4684H29.4104V8.64436Z" fill="white"/>
</mask>
<g mask="url(#mask0_278_3648)">
<g opacity="0.410004">
<path d="M36.2773 22.4907C37.8174 17.9911 39.7496 13.2527 36.903 8.92352C36.8422 8.83042 36.789 8.73733 36.7389 8.64487C36.0626 9.94376 35.6319 11.3611 35.326 12.7949C34.0734 18.6617 34.568 25.0796 31.5725 30.2764C30.9316 31.3898 30.145 32.4138 29.4104 33.4683C32.5972 30.9382 35.0423 26.1005 36.2773 22.4907Z" fill="#FFC4BE"/>
</g>
</g>
<path d="M30.5945 34.9137C32.7364 33.3925 34.2873 31.1709 35.4982 28.8391C36.709 26.508 37.621 24.033 38.7578 21.6645C39.2942 20.5461 39.9123 19.4144 40.9065 18.6734C41.1364 18.5024 41.4075 18.3485 41.6925 18.3783C42.1978 18.4315 42.4607 19.0015 42.5772 19.4954C43.448 23.1863 41.6589 27.0311 39.2131 29.9297C37.0067 32.5458 34.2316 34.68 31.1366 36.1411" fill="#B582BF"/>
<path d="M25.1028 36.4282C22.8983 36.6885 20.6545 36.1103 18.6679 35.1186C16.6812 34.1262 14.9238 32.7355 13.2412 31.2871C10.72 29.1175 8.28686 26.7363 6.77201 23.7756C5.25653 20.8155 4.77396 17.1646 6.20901 14.164C7.0342 12.437 8.78527 10.9 10.6712 11.2255C11.6636 11.3971 12.5186 12.0653 13.1094 12.8816C13.699 13.6979 14.0562 14.6574 14.3672 15.6155C15.4134 18.8378 16.0182 22.1923 17.1328 25.3918C18.2474 28.5912 19.9566 31.7165 22.6988 33.7051" fill="#EEDAF2"/>
<path d="M23.2639 35.5816C20.1797 33.8267 17.107 32.0357 14.2419 29.9433C13.0418 29.0662 11.8664 28.1239 10.9766 26.9339C10.5986 26.4292 10.2667 25.8535 10.2401 25.224C10.2142 24.5939 10.5808 23.9118 11.192 23.7604C11.8335 23.6015 12.4573 24.0423 12.9519 24.4792C17.2387 28.26 20.1145 33.8286 25.3285 36.1718" fill="#B582BF"/>
<path d="M24.5534 36.8877C22.0297 33.896 20.0171 30.5148 18.0165 27.1501C17.1052 25.6169 16.1799 24.0501 15.8025 22.3073C15.0248 18.7209 16.8246 14.8609 19.7821 12.6887C22.7403 10.5172 26.6534 9.90665 30.2752 10.4963C32.4601 10.8528 34.6969 11.704 36.0319 13.4702C37.3498 15.2131 37.5721 17.5525 37.4144 19.7323C36.9787 25.7518 33.9053 31.5344 29.1581 35.262" fill="#EEDAF2"/>
<path d="M25.2261 34.4084C23.3668 31.1399 21.4802 27.798 20.7601 24.1072C20.6328 23.4542 20.5454 22.7639 20.7601 22.1338C20.9748 21.5043 21.5758 20.9603 22.2388 21.0205C23.0001 21.0901 23.4769 21.8564 23.8075 22.5454C24.6055 24.2078 25.2692 25.9336 25.7916 27.7024C26.7847 24.9133 26.5592 21.6348 28.3305 19.2624C28.5091 19.0237 28.822 18.7767 29.0715 18.9394C29.2108 19.0306 29.2539 19.2118 29.283 19.3758C29.5636 20.9483 29.5908 22.5663 29.3622 24.1477C30.188 24.0457 30.5908 22.947 31.4103 22.8026C32.055 22.6879 32.6617 23.2668 32.8073 23.9058C32.9524 24.5454 32.7573 25.2091 32.5331 25.8247C31.428 28.8734 29.6199 31.6092 27.829 34.3128" fill="#B582BF"/>
<path d="M21.3929 34.5692C20.9673 32.7149 27.6189 32.9739 30.2882 33.1158C31.0248 33.1557 31.8341 33.2557 32.33 33.8023C32.6941 34.2044 32.8119 34.7763 32.8062 35.319C32.7929 36.7782 31.995 38.1391 30.9564 39.1644C29.5416 40.5608 27.4757 41.4696 25.5499 40.9763C24.2282 40.6375 23.1187 39.6692 22.4322 38.4887C21.745 37.3095 21.4512 35.9327 21.3929 34.5692Z" fill="#333957"/>
</svg>
