<?xml version="1.0" encoding="UTF-8"?>
<svg id="Calque_2" data-name="Calque 2" xmlns="http://www.w3.org/2000/svg" viewBox="0 0 90.92 110.48">
  <defs>
    <style>
      .cls-1 {
        fill: #b595c0;
      }
    </style>
  </defs>
  <g id="M">
    <path class="cls-1" d="m86.78,82.83c-4.99,0-7.31-2.56-7.31-8.89,0-13.03-1.95-46.17-4.51-61.03-1.95,3.53-4.14,9.38-7.31,18.39l-12.91,37.15c-1.71,4.99-4.14,10.84-5.97,14.37h-2.56c-3.29,0-7.31-2.56-13.64-21.8l-10.35-31.31c-1.83-5.73-4.75-12.42-7.06-16.69-3.41,22.78-3.95,79.79-4.19,97.45h-3.29c-4.02,0-7.67-3.04-7.67-8.89C0,78.69,3.46,17.66,6.63,0h4.14c10.72,0,15.35,9.62,18.39,18.52l10.96,32.52c1.83,5.48,4.02,12.3,4.87,16.57,1.34-4.87,3.41-11.21,5.48-16.81l10.72-29.84c3.29-9.14,8.28-18.03,10.6-20.95h2.92c7.43,0,10.6,5.48,11.69,15.71,2.31,20.95,4.02,47.75,4.51,67.12h-4.14Z"/>
  </g>
</svg>