<?xml version="1.0" encoding="UTF-8"?>
<svg id="Calque_2" data-name="Calque 2" xmlns="http://www.w3.org/2000/svg" viewBox="0 0 95.8 200.53">
  <defs>
    <style>
      .cls-1 {
        fill: #f7c6c0;
      }

      .cls-2 {
        fill: #e9ac41;
      }

      .cls-3 {
        fill: #f0a79e;
      }

      .cls-4 {
        fill: #fde6e3;
      }

      .cls-5 {
        fill: #9db1aa;
      }

      .cls-6 {
        fill: #dfe6e4;
      }
    </style>
  </defs>
  <g id="Tulipe">
    <g>
      <path class="cls-3" d="m17.27,1.95c2.48-.46,4.94-1.04,7.44-1.35,20.51-2.53,27.41,2.77,29.59,22.9,4.03-4.2.73-9.66,3.92-14.56,7.89-5.14,17.2-12.68,27.94-6.79,12.04,6.6,9.11,18.79,9.64,28.95-10.78,7.53-21.4,12.23-34.22,12.21-.8-4.42-.19-9.41-6.15-11.76-10.77-3.17-17.78.9-22.7,9-.81.16-1.61.38-2.39.65-5.35-12.84-13.05-25.09-13.07-39.26Z"/>
      <path class="cls-5" d="m41.38,128.94c-2.28,26.04,9.45,48.97,22.55,71.59-6.93-4.12-23.02-30.13-24.26-38.18-5.01-32.6-7.65-65.19.5-97.57,1.8-2.69,3.52-.85,5.25.14-4.79,17.55-4.77,35.53-5.14,53.48-.82,3.59-1.46,7.18,1.1,10.54Z"/>
      <path class="cls-4" d="m16.95,2.91c.02,14.16,7.72,26.42,13.07,39.26-1.07,1.66-2.15,3.32-3.22,4.99-11.22-6.29-15.5-17.61-23.84-26.05C-1.82,16.25-.38,9.31,4.17,3.71c4.24-1.75,9.25,5.04,12.78-.81Z"/>
      <path class="cls-2" d="m26.48,46.19c1.07-1.66,2.15-3.32,3.22-4.99.78-.27,1.57-.49,2.39-.65,4.29,4.82,1.06,11.42,4.81,16.22,8.55,3.05,13.52-2.09,15.69-6.86,2.49-5.47,1.61-12.19,2.2-18.36,5.96,2.36,5.36,7.34,6.15,11.76-.44,9.54-10.16,13.76-14.98,20.79-1.91-1.09-3.81-3.13-5.79-.16-8.68-3.46-18.15-6.44-13.69-17.76Z"/>
      <path class="cls-6" d="m40.86,120.38c-2.82-3.71-2.11-7.66-1.21-11.63,2.7,3.72,2.34,7.65,1.21,11.63Z"/>
      <path class="cls-1" d="m53.83,31.55c-.59,6.17.29,12.89-2.2,18.36-2.17,4.77-7.15,9.92-15.69,6.86-3.75-4.8-.52-11.4-4.81-16.22,4.92-8.1,11.93-12.17,22.7-9Z"/>
    </g>
  </g>
</svg>