<svg xmlns="http://www.w3.org/2000/svg" width="925.923" height="533.936" viewBox="0 0 925.923 533.936">
  <g id="Citation" transform="translate(-7.057 -8.653)">
    <path id="L" d="M11.716,15.551V14.317a10.7,10.7,0,0,1-3.756.657H7.04c-2.706,0-3.336-1-3.336-3.73V2.627C3.7.841,2.942,0,1.471,0H0V11.48c0,4.308,2.338,6.672,6.567,6.672H7.96C10.928,18.152,11.716,17.127,11.716,15.551Z" transform="translate(25.408 8.962) rotate(90.974)" fill="#333957"/>
    <path id="_" data-name="’" d="M4.188,2.859C4.188,1,3.335,0,2.031,0A1.876,1.876,0,0,0,.075,1.856,1.763,1.763,0,0,0,.752,3.31a1.518,1.518,0,0,1,.4,1.128A4.161,4.161,0,0,1,0,7.021v.15H.677C2.608,7.171,4.188,5.065,4.188,2.859Z" transform="translate(28.012 21.682) rotate(82.97)" fill="#333957"/>
    <path id="a" d="M11.742,9.614V6.357C11.742,1.471,8.905,0,5.753,0,2.023,0,.6,1.891.6,3.468V4.6H.736c.525-.657,1.944-1.629,4.492-1.629,2.1,0,3.047.6,3.047,2.6v.184H7.04C1.839,5.753,0,7.671,0,10.192c0,2.6,2.312,4.492,5.674,4.492h.709C9.536,14.684,11.742,12.609,11.742,9.614ZM8.3,9.641c0,1.445-.736,2.18-2.259,2.18-1.55,0-2.443-.657-2.443-1.76,0-1.156.762-1.786,3.441-1.786H8.3Z" transform="translate(22.738 29.132) rotate(75.4)" fill="#333957"/>
    <path id="v" d="M12.951,1.681C12.951.525,12.5,0,11.3,0H9.8A34.877,34.877,0,0,1,6.7,9.956,29.5,29.5,0,0,1,3.993,1.681,2.127,2.127,0,0,0,1.891,0H0C.315,3.835,2.732,10.009,4.65,12.924a2.474,2.474,0,0,0,2.312,1.419h.683a36.6,36.6,0,0,0,4.1-8.17A19.3,19.3,0,0,0,12.951,1.681Z" transform="translate(25.942 42.281) rotate(65.98)" fill="#333957"/>
    <path id="e" d="M12.609,5.49A5.476,5.476,0,0,0,6.935,0C2.89,0,0,2.968,0,7.7a6.988,6.988,0,0,0,6.961,7.119c3.888,0,5.122-1.392,5.122-3.2v-1.1h-.131a6.417,6.417,0,0,1-4.334,1.34c-2.075,0-3.7-1.13-3.967-2.916H5.963C10.639,8.931,12.609,8.091,12.609,5.49ZM9.3,5.07c0,1-.762,1.366-4.1,1.366H3.625l.026-.473A3.028,3.028,0,0,1,6.62,2.942C8.248,2.942,9.3,3.651,9.3,5.07Z" transform="matrix(0.541, 0.841, -0.841, 0.541, 32.335, 55.604)" fill="#333957"/>
    <path id="n" d="M12.478,14.5V6.252A5.858,5.858,0,0,0,6.383,0C1.97,0,0,3.073,0,6.068v6.121A2.293,2.293,0,0,0,2.469,14.5H3.52V6.3c0-2.023,1.051-3.179,2.574-3.179,1.813,0,2.863,1.051,2.863,3.441v5.622A2.341,2.341,0,0,0,11.532,14.5Z" transform="translate(41.047 68.82) rotate(49.138)" fill="#333957"/>
    <path id="i" d="M4.124,2.049A2.074,2.074,0,0,0,2.049,0,2.052,2.052,0,0,0,0,2.049,2.074,2.074,0,0,0,2.049,4.124,2.1,2.1,0,0,0,4.124,2.049ZM6.646,17.311V16.55H5.989c-1.55,0-2.154-.447-2.154-1.865V8.065A2.305,2.305,0,0,0,1.313,5.438h-1v9.588c0,2.863,1.5,4.413,4.229,4.413C6.042,19.439,6.646,18.835,6.646,17.311Z" transform="translate(55.568 77.727) rotate(43.55)" fill="#333957"/>
    <path id="r" d="M8.17,3.573V2.312C8.17,1.235,7.408,0,5.228,0,1.5,0,0,2.706,0,5.543v6.515c0,1.471,1,2.259,2.574,2.259h.972V6.173c0-2.154.867-3.021,2.443-3.021a5.093,5.093,0,0,1,2.049.42Z" transform="matrix(0.768, 0.64, -0.64, 0.768, 58.717, 87.49)" fill="#333957"/>
    <path id="a-2" data-name="a" d="M11.742,9.614V6.357C11.742,1.471,8.905,0,5.753,0,2.023,0,.6,1.891.6,3.468V4.6H.736c.525-.657,1.944-1.629,4.492-1.629,2.1,0,3.047.6,3.047,2.6v.184H7.04C1.839,5.753,0,7.671,0,10.192c0,2.6,2.312,4.492,5.674,4.492h.709C9.536,14.684,11.742,12.609,11.742,9.614ZM8.3,9.641c0,1.445-.736,2.18-2.259,2.18-1.55,0-2.443-.657-2.443-1.76,0-1.156.762-1.786,3.441-1.786H8.3Z" transform="translate(71.331 97.348) rotate(33.78)" fill="#333957"/>
    <path id="p" d="M13.529,6.988C13.529,3.415,10.849,0,7.093,0,2.1,0,0,3.257,0,7.96v8.564a2.409,2.409,0,0,0,2.469,2.443h1.1V12.714a4.142,4.142,0,0,0,3.573,2.1C11.269,14.816,13.529,11.532,13.529,6.988ZM9.9,7.907c0,2.259-1.182,3.783-2.89,3.783-2.1,0-3.494-1.6-3.494-4.439,0-2.443,1.077-4.124,3.021-4.124C8.8,3.126,9.9,4.571,9.9,7.907Z" transform="translate(84.038 105.674) rotate(29.589)" fill="#333957"/>
    <path id="p-2" data-name="p" d="M13.529,6.988C13.529,3.415,10.849,0,7.093,0,2.1,0,0,3.257,0,7.96v8.564a2.409,2.409,0,0,0,2.469,2.443h1.1V12.714a4.142,4.142,0,0,0,3.573,2.1C11.269,14.816,13.529,11.532,13.529,6.988ZM9.9,7.907c0,2.259-1.182,3.783-2.89,3.783-2.1,0-3.494-1.6-3.494-4.439,0-2.443,1.077-4.124,3.021-4.124C8.8,3.126,9.9,4.571,9.9,7.907Z" transform="matrix(0.9, 0.435, -0.435, 0.9, 98.945, 114.013)" fill="#333957"/>
    <path id="a-3" data-name="a" d="M11.742,9.614V6.357C11.742,1.471,8.905,0,5.753,0,2.023,0,.6,1.891.6,3.468V4.6H.736c.525-.657,1.944-1.629,4.492-1.629,2.1,0,3.047.6,3.047,2.6v.184H7.04C1.839,5.753,0,7.671,0,10.192c0,2.6,2.312,4.492,5.674,4.492h.709C9.536,14.684,11.742,12.609,11.742,9.614ZM8.3,9.641c0,1.445-.736,2.18-2.259,2.18-1.55,0-2.443-.657-2.443-1.76,0-1.156.762-1.786,3.441-1.786H8.3Z" transform="translate(113.835 121.156) rotate(22.82)" fill="#333957"/>
    <path id="r-2" data-name="r" d="M8.17,3.573V2.312C8.17,1.235,7.408,0,5.228,0,1.5,0,0,2.706,0,5.543v6.515c0,1.471,1,2.259,2.574,2.259h.972V6.173c0-2.154.867-3.021,2.443-3.021a5.093,5.093,0,0,1,2.049.42Z" transform="translate(127.944 127.127) rotate(20.74)" fill="#333957"/>
    <path id="t" d="M0,3.783v8.511c0,3.31,1.734,5.254,5.306,5.254,2.049,0,3.1-.919,3.1-2.364V13.923H8.275a5.018,5.018,0,0,1-2.548.5c-1.419,0-2.233-.709-2.233-2.548V6.331H6.3a1.872,1.872,0,0,0,2.1-1.681V3.2H3.494V0H2.679A2.463,2.463,0,0,0,1.024.972,3.523,3.523,0,0,0,0,3.783Z" transform="translate(139.086 128.01) rotate(19.087)" fill="#333957"/>
    <path id="i-2" data-name="i" d="M4.124,2.049A2.074,2.074,0,0,0,2.049,0,2.052,2.052,0,0,0,0,2.049,2.074,2.074,0,0,0,2.049,4.124,2.1,2.1,0,0,0,4.124,2.049ZM6.646,17.311V16.55H5.989c-1.55,0-2.154-.447-2.154-1.865V8.065A2.305,2.305,0,0,0,1.313,5.438h-1v9.588c0,2.863,1.5,4.413,4.229,4.413C6.042,19.439,6.646,18.835,6.646,17.311Z" transform="translate(150.239 129.79) rotate(17.73)" fill="#333957"/>
    <path id="e-2" data-name="e" d="M12.609,5.49A5.476,5.476,0,0,0,6.935,0C2.89,0,0,2.968,0,7.7a6.988,6.988,0,0,0,6.961,7.119c3.888,0,5.122-1.392,5.122-3.2v-1.1h-.131a6.417,6.417,0,0,1-4.334,1.34c-2.075,0-3.7-1.13-3.967-2.916H5.963C10.639,8.931,12.609,8.091,12.609,5.49ZM9.3,5.07c0,1-.762,1.366-4.1,1.366H3.625l.026-.473A3.028,3.028,0,0,1,6.62,2.942C8.248,2.942,9.3,3.651,9.3,5.07Z" transform="translate(156.601 136.877) rotate(16.22)" fill="#333957"/>
    <path id="n-2" data-name="n" d="M12.478,14.5V6.252A5.858,5.858,0,0,0,6.383,0C1.97,0,0,3.073,0,6.068v6.121A2.293,2.293,0,0,0,2.469,14.5H3.52V6.3c0-2.023,1.051-3.179,2.574-3.179,1.813,0,2.863,1.051,2.863,3.441v5.622A2.341,2.341,0,0,0,11.532,14.5Z" transform="matrix(0.968, 0.25, -0.25, 0.968, 171.63, 141.22)" fill="#333957"/>
    <path id="t-2" data-name="t" d="M0,3.783v8.511c0,3.31,1.734,5.254,5.306,5.254,2.049,0,3.1-.919,3.1-2.364V13.923H8.275a5.018,5.018,0,0,1-2.548.5c-1.419,0-2.233-.709-2.233-2.548V6.331H6.3a1.872,1.872,0,0,0,2.1-1.681V3.2H3.494V0H2.679A2.463,2.463,0,0,0,1.024.972,3.523,3.523,0,0,0,0,3.783Z" transform="translate(188.356 142.467) rotate(13.119)" fill="#333957"/>
    <path id="à" d="M11.742,15.262V12c0-4.886-2.837-6.357-5.989-6.357C2.023,5.648.6,7.539.6,9.115v1.13H.736c.525-.657,1.944-1.629,4.492-1.629,2.1,0,3.047.6,3.047,2.6V11.4H7.04C1.839,11.4,0,13.318,0,15.84c0,2.6,2.312,4.492,5.674,4.492h.709C9.536,20.332,11.742,18.257,11.742,15.262ZM8.3,15.289c0,1.445-.736,2.18-2.259,2.18-1.55,0-2.443-.657-2.443-1.76,0-1.156.762-1.786,3.441-1.786H8.3ZM2.522,1.34c0,.762.657,1.419,1.734,1.865a8.511,8.511,0,0,0,3.021.63H8.459V3.7a11.987,11.987,0,0,0-1.97-2.443A3.552,3.552,0,0,0,3.993,0C3.126,0,2.522.394,2.522,1.34Z" transform="translate(204.574 143.38) rotate(11.43)" fill="#333957"/>
    <path id="c" d="M11.506,4.7V3.047C11.506,1.366,9.9,0,7.644,0A7.273,7.273,0,0,0,0,7.513a7.142,7.142,0,0,0,7.25,7.066c2.548,0,4.2-1.235,4.2-2.942V10.009h-.131c-.5.657-1.707,1.313-3.73,1.313-2.39,0-3.914-1.76-3.914-4.334A3.846,3.846,0,0,1,7.539,3.231c2.023,0,3.362.657,3.835,1.471Z" transform="translate(223.424 152.969) rotate(9.82)" fill="#333957"/>
    <path id="e-3" data-name="e" d="M12.609,5.49A5.476,5.476,0,0,0,6.935,0C2.89,0,0,2.968,0,7.7a6.988,6.988,0,0,0,6.961,7.119c3.888,0,5.122-1.392,5.122-3.2v-1.1h-.131a6.417,6.417,0,0,1-4.334,1.34c-2.075,0-3.7-1.13-3.967-2.916H5.963C10.639,8.931,12.609,8.091,12.609,5.49ZM9.3,5.07c0,1-.762,1.366-4.1,1.366H3.625l.026-.473A3.028,3.028,0,0,1,6.62,2.942C8.248,2.942,9.3,3.651,9.3,5.07Z" transform="translate(237.133 155.14) rotate(8.77)" fill="#333957"/>
    <path id="u" d="M12.452,7.828V2.522C12.452.867,11.585,0,9.536,0h-.63V7.96c0,2.417-1.024,3.415-2.469,3.415-1.6,0-2.863-1.051-2.863-3.651v-5.2C3.573.867,2.679,0,.657,0H0V8.065C0,12.189,2.758,14.5,6.252,14.5,10.376,14.5,12.452,12.241,12.452,7.828Z" transform="matrix(0.991, 0.134, -0.134, 0.991, 252.796, 157.854)" fill="#333957"/>
    <path id="x" d="M13.45,12.635c-1.235-.263-1.865-.841-3.389-3.073L8.511,7.3c.841-.946,1.576-1.813,2.154-2.574a6.665,6.665,0,0,0,1.655-3.2,1.362,1.362,0,0,0-1.445-1.5H9.536c-.236,1.419-.6,2.154-2.863,4.7L5.228,2.679C3.651.447,2.785,0,2.1,0H0C.053,1,.657,1.944,2.522,4.623l1.5,2.154L2.863,8.012C1.1,9.9.131,11.3.131,12.977a1.344,1.344,0,0,0,1.445,1.261h1.6a6.259,6.259,0,0,1,.788-2.39,16.286,16.286,0,0,1,1.865-2.5l1.55,2.338C8.616,13.555,9.641,14.4,11.138,14.4,12.688,14.4,13.45,13.634,13.45,12.635Z" transform="translate(268.274 159.936) rotate(6.76)" fill="#333957"/>
    <path id="q" d="M7.2,0C2.89,0,0,3.362,0,7.828a6.642,6.642,0,0,0,6.567,6.988,3.846,3.846,0,0,0,3.441-1.839V16.6a2.1,2.1,0,0,0,2.338,2.338H13.5V7.145C13.5,2.706,11.269,0,7.2,0ZM6.751,3.126c2.128,0,3.257,1.419,3.257,4.439,0,2.942-1.1,4.124-3.073,4.124-2.18,0-3.415-1.576-3.415-4.492C3.52,4.623,5.149,3.126,6.751,3.126Z" transform="translate(289.713 162.067) rotate(5.53)" fill="#333957"/>
    <path id="u-2" data-name="u" d="M12.452,7.828V2.522C12.452.867,11.585,0,9.536,0h-.63V7.96c0,2.417-1.024,3.415-2.469,3.415-1.6,0-2.863-1.051-2.863-3.651v-5.2C3.573.867,2.679,0,.657,0H0V8.065C0,12.189,2.758,14.5,6.252,14.5,10.376,14.5,12.452,12.241,12.452,7.828Z" transform="translate(307.238 164.061) rotate(4.68)" fill="#333957"/>
    <path id="i-3" data-name="i" d="M4.124,2.049A2.074,2.074,0,0,0,2.049,0,2.052,2.052,0,0,0,0,2.049,2.074,2.074,0,0,0,2.049,4.124,2.1,2.1,0,0,0,4.124,2.049ZM6.646,17.311V16.55H5.989c-1.55,0-2.154-.447-2.154-1.865V8.065A2.305,2.305,0,0,0,1.313,5.438h-1v9.588c0,2.863,1.5,4.413,4.229,4.413C6.042,19.439,6.646,18.835,6.646,17.311Z" transform="translate(324.343 160.273) rotate(4.1)" fill="#333957"/>
    <path id="c-2" data-name="c" d="M11.506,4.7V3.047C11.506,1.366,9.9,0,7.644,0A7.273,7.273,0,0,0,0,7.513a7.142,7.142,0,0,0,7.25,7.066c2.548,0,4.2-1.235,4.2-2.942V10.009h-.131c-.5.657-1.707,1.313-3.73,1.313-2.39,0-3.914-1.76-3.914-4.334A3.846,3.846,0,0,1,7.539,3.231c2.023,0,3.362.657,3.835,1.471Z" transform="translate(338.712 166.213) rotate(4.416)" fill="#333957"/>
    <path id="r-3" data-name="r" d="M8.17,3.573V2.312C8.17,1.235,7.408,0,5.228,0,1.5,0,0,2.706,0,5.543v6.515c0,1.471,1,2.259,2.574,2.259h.972V6.173c0-2.154.867-3.021,2.443-3.021a5.093,5.093,0,0,1,2.049.42Z" transform="translate(353.838 167.456) rotate(5.85)" fill="#333957"/>
    <path id="o" d="M0,7.671c0,3.756,2.443,7.145,6.7,7.145,4.571,0,7.014-3.389,7.014-7.644C13.712,3.415,11.269,0,7.014,0,2.443,0,0,3.415,0,7.671Zm10.061,0c0,2.312-1,3.993-3.047,3.993-2.338,0-3.362-1.681-3.362-4.492,0-2.338,1.024-4.019,3.047-4.019C9.01,3.152,10.061,4.834,10.061,7.671Z" transform="matrix(0.992, 0.128, -0.128, 0.992, 364.21, 168.323)" fill="#333957"/>
    <path id="i-4" data-name="i" d="M4.124,2.049A2.074,2.074,0,0,0,2.049,0,2.052,2.052,0,0,0,0,2.049,2.074,2.074,0,0,0,2.049,4.124,2.1,2.1,0,0,0,4.124,2.049ZM6.646,17.311V16.55H5.989c-1.55,0-2.154-.447-2.154-1.865V8.065A2.305,2.305,0,0,0,1.313,5.438h-1v9.588c0,2.863,1.5,4.413,4.229,4.413C6.042,19.439,6.646,18.835,6.646,17.311Z" transform="translate(382.631 165.969) rotate(8.8)" fill="#333957"/>
    <path id="e-4" data-name="e" d="M12.609,5.49A5.476,5.476,0,0,0,6.935,0C2.89,0,0,2.968,0,7.7a6.988,6.988,0,0,0,6.961,7.119c3.888,0,5.122-1.392,5.122-3.2v-1.1h-.131a6.417,6.417,0,0,1-4.334,1.34c-2.075,0-3.7-1.13-3.967-2.916H5.963C10.639,8.931,12.609,8.091,12.609,5.49ZM9.3,5.07c0,1-.762,1.366-4.1,1.366H3.625l.026-.473A3.028,3.028,0,0,1,6.62,2.942C8.248,2.942,9.3,3.651,9.3,5.07Z" transform="translate(390.548 172.049) rotate(10.12)" fill="#333957"/>
    <path id="n-3" data-name="n" d="M12.478,14.5V6.252A5.858,5.858,0,0,0,6.383,0C1.97,0,0,3.073,0,6.068v6.121A2.293,2.293,0,0,0,2.469,14.5H3.52V6.3c0-2.023,1.051-3.179,2.574-3.179,1.813,0,2.863,1.051,2.863,3.441v5.622A2.341,2.341,0,0,0,11.532,14.5Z" transform="translate(406.863 175.006) rotate(11.827)" fill="#333957"/>
    <path id="t-3" data-name="t" d="M0,3.783v8.511c0,3.31,1.734,5.254,5.306,5.254,2.049,0,3.1-.919,3.1-2.364V13.923H8.275a5.018,5.018,0,0,1-2.548.5c-1.419,0-2.233-.709-2.233-2.548V6.331H6.3a1.872,1.872,0,0,0,2.1-1.681V3.2H3.494V0H2.679A2.463,2.463,0,0,0,1.024.972,3.523,3.523,0,0,0,0,3.783Z" transform="translate(424.381 175.795) rotate(13.22)" fill="#333957"/>
    <path id="e-5" data-name="e" d="M12.609,5.49A5.476,5.476,0,0,0,6.935,0C2.89,0,0,2.968,0,7.7a6.988,6.988,0,0,0,6.961,7.119c3.888,0,5.122-1.392,5.122-3.2v-1.1h-.131a6.417,6.417,0,0,1-4.334,1.34c-2.075,0-3.7-1.13-3.967-2.916H5.963C10.639,8.931,12.609,8.091,12.609,5.49ZM9.3,5.07c0,1-.762,1.366-4.1,1.366H3.625l.026-.473A3.028,3.028,0,0,1,6.62,2.942C8.248,2.942,9.3,3.651,9.3,5.07Z" transform="translate(440.333 182.623) rotate(15.14)" fill="#333957"/>
    <path id="n-4" data-name="n" d="M12.478,14.5V6.252A5.858,5.858,0,0,0,6.383,0C1.97,0,0,3.073,0,6.068v6.121A2.293,2.293,0,0,0,2.469,14.5H3.52V6.3c0-2.023,1.051-3.179,2.574-3.179,1.813,0,2.863,1.051,2.863,3.441v5.622A2.341,2.341,0,0,0,11.532,14.5Z" transform="translate(456.245 186.985) rotate(16.68)" fill="#333957"/>
    <path id="l-2" data-name="l" d="M6.856,16.917v-.762H5.911c-1.655,0-2.39-.447-2.39-1.865V2.364A2.228,2.228,0,0,0,1,0H0V14.632c0,2.863,1.576,4.413,4.492,4.413C6.042,19.045,6.856,18.441,6.856,16.917Z" transform="translate(480.172 189.775) rotate(18.44)" fill="#333957"/>
    <path id="a-4" data-name="a" d="M11.742,9.614V6.357C11.742,1.471,8.905,0,5.753,0,2.023,0,.6,1.891.6,3.468V4.6H.736c.525-.657,1.944-1.629,4.492-1.629,2.1,0,3.047.6,3.047,2.6v.184H7.04C1.839,5.753,0,7.671,0,10.192c0,2.6,2.312,4.492,5.674,4.492h.709C9.536,14.684,11.742,12.609,11.742,9.614ZM8.3,9.641c0,1.445-.736,2.18-2.259,2.18-1.55,0-2.443-.657-2.443-1.76,0-1.156.762-1.786,3.441-1.786H8.3Z" transform="matrix(0.943, 0.334, -0.334, 0.943, 486.843, 196.695)" fill="#333957"/>
    <path id="b" d="M13.712,11.532c0-4.177-2.758-7.119-6.357-7.119A4.588,4.588,0,0,0,3.52,6.567V2.443A2.166,2.166,0,0,0,1.208,0H0V12c0,4.256,3.047,7.224,6.672,7.224C10.98,19.229,13.712,15.788,13.712,11.532Zm-3.651.6c0,2.285-1.261,3.967-3.021,3.967-2.1,0-3.494-1.34-3.494-4.6,0-2.207,1.34-3.967,3.126-3.967C8.826,7.539,10.061,8.7,10.061,12.136Z" transform="translate(509.145 200.013) rotate(21.42)" fill="#333957"/>
    <path id="e-6" data-name="e" d="M12.609,5.49A5.476,5.476,0,0,0,6.935,0C2.89,0,0,2.968,0,7.7a6.988,6.988,0,0,0,6.961,7.119c3.888,0,5.122-1.392,5.122-3.2v-1.1h-.131a6.417,6.417,0,0,1-4.334,1.34c-2.075,0-3.7-1.13-3.967-2.916H5.963C10.639,8.931,12.609,8.091,12.609,5.49ZM9.3,5.07c0,1-.762,1.366-4.1,1.366H3.625l.026-.473A3.028,3.028,0,0,1,6.62,2.942C8.248,2.942,9.3,3.651,9.3,5.07Z" transform="translate(523.511 210.433) rotate(22.8)" fill="#333957"/>
    <path id="a-5" data-name="a" d="M11.742,9.614V6.357C11.742,1.471,8.905,0,5.753,0,2.023,0,.6,1.891.6,3.468V4.6H.736c.525-.657,1.944-1.629,4.492-1.629,2.1,0,3.047.6,3.047,2.6v.184H7.04C1.839,5.753,0,7.671,0,10.192c0,2.6,2.312,4.492,5.674,4.492h.709C9.536,14.684,11.742,12.609,11.742,9.614ZM8.3,9.641c0,1.445-.736,2.18-2.259,2.18-1.55,0-2.443-.657-2.443-1.76,0-1.156.762-1.786,3.441-1.786H8.3Z" transform="translate(538.073 216.644) rotate(24.02)" fill="#333957"/>
    <path id="u-3" data-name="u" d="M12.452,7.828V2.522C12.452.867,11.585,0,9.536,0h-.63V7.96c0,2.417-1.024,3.415-2.469,3.415-1.6,0-2.863-1.051-2.863-3.651v-5.2C3.573.867,2.679,0,.657,0H0V8.065C0,12.189,2.758,14.5,6.252,14.5,10.376,14.5,12.452,12.241,12.452,7.828Z" transform="translate(552.223 223.272) rotate(25.26)" fill="#333957"/>
    <path id="t-4" data-name="t" d="M0,3.783v8.511c0,3.31,1.734,5.254,5.306,5.254,2.049,0,3.1-.919,3.1-2.364V13.923H8.275a5.018,5.018,0,0,1-2.548.5c-1.419,0-2.233-.709-2.233-2.548V6.331H6.3a1.872,1.872,0,0,0,2.1-1.681V3.2H3.494V0H2.679A2.463,2.463,0,0,0,1.024.972,3.523,3.523,0,0,0,0,3.783Z" transform="translate(569.176 227.798) rotate(26.33)" fill="#333957"/>
    <path id="é" d="M12.609,11.086A5.476,5.476,0,0,0,6.935,5.6C2.89,5.6,0,8.564,0,13.292a6.988,6.988,0,0,0,6.961,7.119c3.888,0,5.122-1.392,5.122-3.2V16.1h-.131a6.417,6.417,0,0,1-4.334,1.34c-2.075,0-3.7-1.13-3.967-2.916H5.963C10.639,14.527,12.609,13.686,12.609,11.086Zm-3.31-.42c0,1-.762,1.366-4.1,1.366H3.625l.026-.473A3.028,3.028,0,0,1,6.62,8.537C8.248,8.537,9.3,9.247,9.3,10.665ZM10.455,1.34c0-.946-.6-1.34-1.471-1.34a3.552,3.552,0,0,0-2.5,1.261A11.987,11.987,0,0,0,4.518,3.7v.131H5.7A8.511,8.511,0,0,0,8.721,3.2C9.8,2.758,10.455,2.1,10.455,1.34Z" transform="translate(580.041 230.161) rotate(27.34)" fill="#333957"/>
    <path id="d" d="M13.4,12.373V2.39A2.167,2.167,0,0,0,10.98,0H9.9V6.646a4.126,4.126,0,0,0-3.52-2.233C2.259,4.413,0,7.434,0,12.084a6.865,6.865,0,0,0,6.594,7.145C11.453,19.229,13.4,16.5,13.4,12.373Zm-3.546-.158c0,2.574-.867,4.045-2.837,4.045-2.023,0-3.546-1.918-3.546-4.86,0-2.285,1.156-4.019,2.942-4.019C8.3,7.382,9.851,8.669,9.851,12.215Z" transform="translate(599.164 241.501) rotate(28.98)" fill="#333957"/>
    <path id="e-7" data-name="e" d="M12.609,5.49A5.476,5.476,0,0,0,6.935,0C2.89,0,0,2.968,0,7.7a6.988,6.988,0,0,0,6.961,7.119c3.888,0,5.122-1.392,5.122-3.2v-1.1h-.131a6.417,6.417,0,0,1-4.334,1.34c-2.075,0-3.7-1.13-3.967-2.916H5.963C10.639,8.931,12.609,8.091,12.609,5.49ZM9.3,5.07c0,1-.762,1.366-4.1,1.366H3.625l.026-.473A3.028,3.028,0,0,1,6.62,2.942C8.248,2.942,9.3,3.651,9.3,5.07Z" transform="translate(612.236 253.823) rotate(30.129)" fill="#333957"/>
    <path id="l-3" data-name="l" d="M6.856,16.917v-.762H5.911c-1.655,0-2.39-.447-2.39-1.865V2.364A2.228,2.228,0,0,0,1,0H0V14.632c0,2.863,1.576,4.413,4.492,4.413C6.042,19.045,6.856,18.441,6.856,16.917Z" transform="translate(634.187 261.639) rotate(31.42)" fill="#333957"/>
    <path id="e-8" data-name="e" d="M12.609,5.49A5.476,5.476,0,0,0,6.935,0C2.89,0,0,2.968,0,7.7a6.988,6.988,0,0,0,6.961,7.119c3.888,0,5.122-1.392,5.122-3.2v-1.1h-.131a6.417,6.417,0,0,1-4.334,1.34c-2.075,0-3.7-1.13-3.967-2.916H5.963C10.639,8.931,12.609,8.091,12.609,5.49ZM9.3,5.07c0,1-.762,1.366-4.1,1.366H3.625l.026-.473A3.028,3.028,0,0,1,6.62,2.942C8.248,2.942,9.3,3.651,9.3,5.07Z" transform="translate(639.106 269.811) rotate(32.26)" fill="#333957"/>
    <path id="u-4" data-name="u" d="M12.452,7.828V2.522C12.452.867,11.585,0,9.536,0h-.63V7.96c0,2.417-1.024,3.415-2.469,3.415-1.6,0-2.863-1.051-2.863-3.651v-5.2C3.573.867,2.679,0,.657,0H0V8.065C0,12.189,2.758,14.5,6.252,14.5,10.376,14.5,12.452,12.241,12.452,7.828Z" transform="translate(652.838 278.885) rotate(33.372)" fill="#333957"/>
    <path id="r-4" data-name="r" d="M8.17,3.573V2.312C8.17,1.235,7.408,0,5.228,0,1.5,0,0,2.706,0,5.543v6.515c0,1.471,1,2.259,2.574,2.259h.972V6.173c0-2.154.867-3.021,2.443-3.021a5.093,5.093,0,0,1,2.049.42Z" transform="translate(667.066 288.177) rotate(34.278)" fill="#333957"/>
    <path id="s" d="M10.875,10.035c0-2.259-1.576-3.546-4.518-4.019C3.94,5.622,3.52,5.333,3.52,4.623c0-.919.683-1.576,2.837-1.576A6.187,6.187,0,0,1,10.4,4.361h.131V3.021C10.534,1.655,9.22,0,6.016,0,2.39,0,0,2.259,0,4.912,0,7.066,1.445,8.248,4.439,8.669c2.443.341,2.942.736,2.942,1.55,0,1.051-.841,1.55-2.574,1.55a7.061,7.061,0,0,1-4.256-1.34H.42v1.6c0,1.445,1.944,2.785,4.545,2.785C8.774,14.816,10.875,13.029,10.875,10.035Z" transform="translate(675.633 293.791) rotate(35.105)" fill="#333957"/>
    <path id="r-5" data-name="r" d="M8.17,3.573V2.312C8.17,1.235,7.408,0,5.228,0,1.5,0,0,2.706,0,5.543v6.515c0,1.471,1,2.259,2.574,2.259h.972V6.173c0-2.154.867-3.021,2.443-3.021a5.093,5.093,0,0,1,2.049.42Z" transform="matrix(0.805, 0.593, -0.593, 0.805, 692.53, 306.053)" fill="#333957"/>
    <path id="ê" d="M12.609,11.453a5.476,5.476,0,0,0-5.674-5.49C2.89,5.963,0,8.931,0,13.66a6.988,6.988,0,0,0,6.961,7.119c3.888,0,5.122-1.392,5.122-3.2v-1.1h-.131a6.417,6.417,0,0,1-4.334,1.34c-2.075,0-3.7-1.13-3.967-2.916H5.963C10.639,14.895,12.609,14.054,12.609,11.453Zm-3.31-.42c0,1-.762,1.366-4.1,1.366H3.625l.026-.473A3.028,3.028,0,0,1,6.62,8.905C8.248,8.905,9.3,9.614,9.3,11.033Zm1.524-6.147V4.124a2.784,2.784,0,0,0-1.6-2.679L6.725,0,4.177,1.471a2.57,2.57,0,0,0-1.55,2.574V4.86L6.7,2.995Z" transform="translate(704.547 307.262) rotate(37.27)" fill="#333957"/>
    <path id="v-2" data-name="v" d="M12.951,1.681C12.951.525,12.5,0,11.3,0H9.8A34.877,34.877,0,0,1,6.7,9.956,29.5,29.5,0,0,1,3.993,1.681,2.127,2.127,0,0,0,1.891,0H0C.315,3.835,2.732,10.009,4.65,12.924a2.474,2.474,0,0,0,2.312,1.419h.683a36.6,36.6,0,0,0,4.1-8.17A19.3,19.3,0,0,0,12.951,1.681Z" transform="matrix(0.784, 0.62, -0.62, 0.784, 712.61, 321.312)" fill="#333957"/>
    <path id="e-9" data-name="e" d="M12.609,5.49A5.476,5.476,0,0,0,6.935,0C2.89,0,0,2.968,0,7.7a6.988,6.988,0,0,0,6.961,7.119c3.888,0,5.122-1.392,5.122-3.2v-1.1h-.131a6.417,6.417,0,0,1-4.334,1.34c-2.075,0-3.7-1.13-3.967-2.916H5.963C10.639,8.931,12.609,8.091,12.609,5.49ZM9.3,5.07c0,1-.762,1.366-4.1,1.366H3.625l.026-.473A3.028,3.028,0,0,1,6.62,2.942C8.248,2.942,9.3,3.651,9.3,5.07Z" transform="translate(724.949 330.677) rotate(39.46)" fill="#333957"/>
    <path id="s-2" data-name="s" d="M10.875,10.035c0-2.259-1.576-3.546-4.518-4.019C3.94,5.622,3.52,5.333,3.52,4.623c0-.919.683-1.576,2.837-1.576A6.187,6.187,0,0,1,10.4,4.361h.131V3.021C10.534,1.655,9.22,0,6.016,0,2.39,0,0,2.259,0,4.912,0,7.066,1.445,8.248,4.439,8.669c2.443.341,2.942.736,2.942,1.55,0,1.051-.841,1.55-2.574,1.55a7.061,7.061,0,0,1-4.256-1.34H.42v1.6c0,1.445,1.944,2.785,4.545,2.785C8.774,14.816,10.875,13.029,10.875,10.035Z" transform="matrix(0.758, 0.652, -0.652, 0.758, 737.103, 340.72)" fill="#333957"/>
    <path id="_2" data-name="~" d="M11.847,1.707c0-.946-.578-1.707-1.1-1.707H9.72c0,1.313-.447,1.839-1.445,1.839a5.464,5.464,0,0,1-2.18-.814A5.077,5.077,0,0,0,3.441.131,3.3,3.3,0,0,0,0,3.52C0,4.676.683,5.228,1.313,5.228h.841c0-1.182.657-1.918,1.445-1.918a4.647,4.647,0,0,1,2.049.683,5.021,5.021,0,0,0,2.706.972A3.211,3.211,0,0,0,11.847,1.707Z" transform="translate(750.107 357.648) rotate(43.338)" fill="#333957"/>
    <path id="E-10" data-name="E" d="M12.557,14.632a18.071,18.071,0,0,1-3.94.394H7.46c-2.785,0-3.809-.6-3.809-3.73V10.245H8.406c1.445,0,2.18-.473,2.18-1.655V7.3H3.651a34.349,34.349,0,0,1,.263-4.2h6.173c1.655,0,2.417-.63,2.417-1.891V0H3.1C1.629,0,.63.552.341,2.706A37.853,37.853,0,0,0,0,7.776v3.336c0,4.6,2.312,7.014,6.7,7.014H8.616c3.152,0,3.888-.788,3.914-2.233Z" transform="translate(771.332 370.438) rotate(51.823)" fill="#333957"/>
    <path id="l-4" data-name="l" d="M6.856,16.917v-.762H5.911c-1.655,0-2.39-.447-2.39-1.865V2.364A2.228,2.228,0,0,0,1,0H0V14.632c0,2.863,1.576,4.413,4.492,4.413C6.042,19.045,6.856,18.441,6.856,16.917Z" transform="matrix(0.628, 0.778, -0.778, 0.628, 781.728, 382.112)" fill="#333957"/>
    <path id="e-11" data-name="e" d="M12.609,5.49A5.476,5.476,0,0,0,6.935,0C2.89,0,0,2.968,0,7.7a6.988,6.988,0,0,0,6.961,7.119c3.888,0,5.122-1.392,5.122-3.2v-1.1h-.131a6.417,6.417,0,0,1-4.334,1.34c-2.075,0-3.7-1.13-3.967-2.916H5.963C10.639,8.931,12.609,8.091,12.609,5.49ZM9.3,5.07c0,1-.762,1.366-4.1,1.366H3.625l.026-.473A3.028,3.028,0,0,1,6.62,2.942C8.248,2.942,9.3,3.651,9.3,5.07Z" transform="translate(783.371 391.176) rotate(50.356)" fill="#333957"/>
    <path id="a-6" data-name="a" d="M11.742,9.614V6.357C11.742,1.471,8.905,0,5.753,0,2.023,0,.6,1.891.6,3.468V4.6H.736c.525-.657,1.944-1.629,4.492-1.629,2.1,0,3.047.6,3.047,2.6v.184H7.04C1.839,5.753,0,7.671,0,10.192c0,2.6,2.312,4.492,5.674,4.492h.709C9.536,14.684,11.742,12.609,11.742,9.614ZM8.3,9.641c0,1.445-.736,2.18-2.259,2.18-1.55,0-2.443-.657-2.443-1.76,0-1.156.762-1.786,3.441-1.786H8.3Z" transform="translate(793.09 402.976) rotate(49.52)" fill="#333957"/>
    <path id="n-5" data-name="n" d="M12.478,14.5V6.252A5.858,5.858,0,0,0,6.383,0C1.97,0,0,3.073,0,6.068v6.121A2.293,2.293,0,0,0,2.469,14.5H3.52V6.3c0-2.023,1.051-3.179,2.574-3.179,1.813,0,2.863,1.051,2.863,3.441v5.622A2.341,2.341,0,0,0,11.532,14.5Z" transform="translate(802.963 414.436) rotate(48.609)" fill="#333957"/>
    <path id="o-2" data-name="o" d="M0,7.671c0,3.756,2.443,7.145,6.7,7.145,4.571,0,7.014-3.389,7.014-7.644C13.712,3.415,11.269,0,7.014,0,2.443,0,0,3.415,0,7.671Zm10.061,0c0,2.312-1,3.993-3.047,3.993-2.338,0-3.362-1.681-3.362-4.492,0-2.338,1.024-4.019,3.047-4.019C9.01,3.152,10.061,4.834,10.061,7.671Z" transform="translate(813.47 426.341) rotate(47.61)" fill="#333957"/>
    <path id="r-6" data-name="r" d="M8.17,3.573V2.312C8.17,1.235,7.408,0,5.228,0,1.5,0,0,2.706,0,5.543v6.515c0,1.471,1,2.259,2.574,2.259h.972V6.173c0-2.154.867-3.021,2.443-3.021a5.093,5.093,0,0,1,2.049.42Z" transform="matrix(0.685, 0.728, -0.728, 0.685, 824.934, 439.113)" fill="#333957"/>
    <path id="R-7" data-name="R" d="M13.607,17.705a8.568,8.568,0,0,1-1.1-1.865l-1.445-3.362A4.715,4.715,0,0,0,8.826,9.956a4.661,4.661,0,0,0,3.7-4.781C12.53,2.154,10.192,0,6.62,0h-2A19.712,19.712,0,0,0,0,.657V15.735a2.23,2.23,0,0,0,2.443,2.417H3.6V10.928a13.963,13.963,0,0,1,1.786.236c.946.158,1.707.289,2.522,2.259l1.34,3.257a2.6,2.6,0,0,0,2.627,1.6C12.872,18.283,13.187,18.152,13.607,17.705ZM6.2,3.1c1.576,0,2.679.473,2.679,2.653A2.444,2.444,0,0,1,6.173,8.2,13.153,13.153,0,0,1,3.6,8.038V3.284A8.823,8.823,0,0,1,5.2,3.1Z" transform="translate(839.054 448.419) rotate(45.38)" fill="#333957"/>
    <path id="o-3" data-name="o" d="M0,7.671c0,3.756,2.443,7.145,6.7,7.145,4.571,0,7.014-3.389,7.014-7.644C13.712,3.415,11.269,0,7.014,0,2.443,0,0,3.415,0,7.671Zm10.061,0c0,2.312-1,3.993-3.047,3.993-2.338,0-3.362-1.681-3.362-4.492,0-2.338,1.024-4.019,3.047-4.019C9.01,3.152,10.061,4.834,10.061,7.671Z" transform="translate(846.955 461.6) rotate(44.18)" fill="#333957"/>
    <path id="o-4" data-name="o" d="M0,7.671c0,3.756,2.443,7.145,6.7,7.145,4.571,0,7.014-3.389,7.014-7.644C13.712,3.415,11.269,0,7.014,0,2.443,0,0,3.415,0,7.671Zm10.061,0c0,2.312-1,3.993-3.047,3.993-2.338,0-3.362-1.681-3.362-4.492,0-2.338,1.024-4.019,3.047-4.019C9.01,3.152,10.061,4.834,10.061,7.671Z" transform="translate(858.642 472.944) rotate(42.78)" fill="#333957"/>
    <path id="s-3" data-name="s" d="M10.875,10.035c0-2.259-1.576-3.546-4.518-4.019C3.94,5.622,3.52,5.333,3.52,4.623c0-.919.683-1.576,2.837-1.576A6.187,6.187,0,0,1,10.4,4.361h.131V3.021C10.534,1.655,9.22,0,6.016,0,2.39,0,0,2.259,0,4.912,0,7.066,1.445,8.248,4.439,8.669c2.443.341,2.942.736,2.942,1.55,0,1.051-.841,1.55-2.574,1.55a7.061,7.061,0,0,1-4.256-1.34H.42v1.6c0,1.445,1.944,2.785,4.545,2.785C8.774,14.816,10.875,13.029,10.875,10.035Z" transform="translate(870.634 483.995) rotate(41.36)" fill="#333957"/>
    <path id="e-12" data-name="e" d="M12.609,5.49A5.476,5.476,0,0,0,6.935,0C2.89,0,0,2.968,0,7.7a6.988,6.988,0,0,0,6.961,7.119c3.888,0,5.122-1.392,5.122-3.2v-1.1h-.131a6.417,6.417,0,0,1-4.334,1.34c-2.075,0-3.7-1.13-3.967-2.916H5.963C10.639,8.931,12.609,8.091,12.609,5.49ZM9.3,5.07c0,1-.762,1.366-4.1,1.366H3.625l.026-.473A3.028,3.028,0,0,1,6.62,2.942C8.248,2.942,9.3,3.651,9.3,5.07Z" transform="translate(880.586 492.747) rotate(39.83)" fill="#333957"/>
    <path id="v-3" data-name="v" d="M12.951,1.681C12.951.525,12.5,0,11.3,0H9.8A34.877,34.877,0,0,1,6.7,9.956,29.5,29.5,0,0,1,3.993,1.681,2.127,2.127,0,0,0,1.891,0H0C.315,3.835,2.732,10.009,4.65,12.924a2.474,2.474,0,0,0,2.312,1.419h.683a36.6,36.6,0,0,0,4.1-8.17A19.3,19.3,0,0,0,12.951,1.681Z" transform="translate(891.49 502.249) rotate(38.02)" fill="#333957"/>
    <path id="e-13" data-name="e" d="M12.609,5.49A5.476,5.476,0,0,0,6.935,0C2.89,0,0,2.968,0,7.7a6.988,6.988,0,0,0,6.961,7.119c3.888,0,5.122-1.392,5.122-3.2v-1.1h-.131a6.417,6.417,0,0,1-4.334,1.34c-2.075,0-3.7-1.13-3.967-2.916H5.963C10.639,8.931,12.609,8.091,12.609,5.49ZM9.3,5.07c0,1-.762,1.366-4.1,1.366H3.625l.026-.473A3.028,3.028,0,0,1,6.62,2.942C8.248,2.942,9.3,3.651,9.3,5.07Z" transform="matrix(0.81, 0.586, -0.586, 0.81, 903.597, 511.293)" fill="#333957"/>
    <path id="l-5" data-name="l" d="M6.856,16.917v-.762H5.911c-1.655,0-2.39-.447-2.39-1.865V2.364A2.228,2.228,0,0,0,1,0H0V14.632c0,2.863,1.576,4.413,4.492,4.413C6.042,19.045,6.856,18.441,6.856,16.917Z" transform="translate(919.3 517.063) rotate(33.83)" fill="#333957"/>
    <path id="t-5" data-name="t" d="M0,3.783v8.511c0,3.31,1.734,5.254,5.306,5.254,2.049,0,3.1-.919,3.1-2.364V13.923H8.275a5.018,5.018,0,0,1-2.548.5c-1.419,0-2.233-.709-2.233-2.548V6.331H6.3a1.872,1.872,0,0,0,2.1-1.681V3.2H3.494V0H2.679A2.463,2.463,0,0,0,1.024.972,3.523,3.523,0,0,0,0,3.783Z" transform="translate(925.843 523.252) rotate(31.878)" fill="#333957"/>
  </g>
</svg>
