<svg xmlns="http://www.w3.org/2000/svg" width="787.666" height="454.872" viewBox="0 0 787.666 454.872">
  <g id="Citation" transform="translate(-0.184 -7)">
    <text id="L" transform="matrix(-0.017, 1, -1, -0.017, 7.382, 7.116)" fill="#333957" font-size="22" font-family="CoconPro-Regular, CoconPro" letter-spacing="0.017em" opacity="0.9"><tspan x="0" y="0">L</tspan></text>
    <text id="_" data-name="’" transform="translate(9.456 20.417) rotate(82.97)" fill="#333957" font-size="21" font-family="CoconPro-Regular, CoconPro" letter-spacing="0.017em" opacity="0.9"><tspan x="0" y="0">’</tspan></text>
    <text id="a" transform="translate(8.253 27.981) rotate(75.4)" fill="#333957" font-size="22" font-family="CoconPro-Regular, CoconPro" letter-spacing="0.017em" opacity="0.9"><tspan x="0" y="0">a</tspan></text>
    <text id="v" transform="translate(11.941 41.471) rotate(65.98)" fill="#333957" font-size="22" font-family="CoconPro-Regular, CoconPro" letter-spacing="0.017em" opacity="0.9"><tspan x="0" y="0">v</tspan></text>
    <text id="e" transform="matrix(0.541, 0.841, -0.841, 0.541, 17.538, 53.804)" fill="#333957" font-size="22" font-family="CoconPro-Regular, CoconPro" letter-spacing="0.017em" opacity="0.9"><tspan x="0" y="0">e</tspan></text>
    <text id="n" transform="matrix(0.654, 0.756, -0.756, 0.654, 25.407, 65.903)" fill="#333957" font-size="22" font-family="CoconPro-Regular, CoconPro" letter-spacing="0.017em" opacity="0.9"><tspan x="0" y="0">n</tspan></text>
    <text id="i" transform="translate(35.427 77.16) rotate(43.55)" fill="#333957" font-size="22" font-family="CoconPro-Regular, CoconPro" letter-spacing="0.017em" opacity="0.9"><tspan x="0" y="0">i</tspan></text>
    <text id="r" transform="matrix(0.768, 0.64, -0.64, 0.768, 41.55, 82.971)" fill="#333957" font-size="22" font-family="CoconPro-Regular, CoconPro" letter-spacing="0.017em" opacity="0.9"><tspan x="0" y="0">r</tspan></text>
    <text id="a-2" data-name="a" transform="translate(53.408 92.49) rotate(33.78)" fill="#333957" font-size="22" font-family="CoconPro-Regular, CoconPro" letter-spacing="0.017em" opacity="0.9"><tspan x="0" y="0">a</tspan></text>
    <text id="p" transform="matrix(0.87, 0.494, -0.494, 0.87, 64.284, 99.766)" fill="#333957" font-size="22" font-family="CoconPro-Regular, CoconPro" letter-spacing="0.017em" opacity="0.9"><tspan x="0" y="0">p</tspan></text>
    <text id="p-2" data-name="p" transform="matrix(0.9, 0.435, -0.435, 0.9, 77.442, 107.198)" fill="#333957" font-size="22" font-family="CoconPro-Regular, CoconPro" letter-spacing="0.017em" opacity="0.9"><tspan x="0" y="0">p</tspan></text>
    <text id="a-3" data-name="a" transform="translate(90.958 113.676) rotate(22.82)" fill="#333957" font-size="22" font-family="CoconPro-Regular, CoconPro" letter-spacing="0.017em" opacity="0.9"><tspan x="0" y="0">a</tspan></text>
    <text id="r-2" data-name="r" transform="translate(102.715 118.58) rotate(20.74)" fill="#333957" font-size="22" font-family="CoconPro-Regular, CoconPro" letter-spacing="0.017em" opacity="0.9"><tspan x="0" y="0">r</tspan></text>
    <text id="t" transform="matrix(0.945, 0.327, -0.327, 0.945, 111.412, 121.872)" fill="#333957" font-size="22" font-family="CoconPro-Regular, CoconPro" letter-spacing="0.017em" opacity="0.9"><tspan x="0" y="0">t</tspan></text>
    <text id="i-2" data-name="i" transform="translate(120.579 125.037) rotate(17.73)" fill="#333957" font-size="22" font-family="CoconPro-Regular, CoconPro" letter-spacing="0.017em" opacity="0.9"><tspan x="0" y="0">i</tspan></text>
    <text id="e-2" data-name="e" transform="translate(128.061 127.454) rotate(16.22)" fill="#333957" font-size="22" font-family="CoconPro-Regular, CoconPro" letter-spacing="0.017em" opacity="0.9"><tspan x="0" y="0">e</tspan></text>
    <text id="n-2" data-name="n" transform="matrix(0.968, 0.25, -0.25, 0.968, 140.464, 131.074)" fill="#333957" font-size="22" font-family="CoconPro-Regular, CoconPro" letter-spacing="0.017em" opacity="0.9"><tspan x="0" y="0">n</tspan></text>
    <text id="t-2" data-name="t" transform="matrix(0.974, 0.227, -0.227, 0.974, 154.086, 134.556)" fill="#333957" font-size="22" font-family="CoconPro-Regular, CoconPro" letter-spacing="0.017em" opacity="0.9"><tspan x="0" y="0">t</tspan></text>
    <text id="à" transform="translate(168.255 137.803) rotate(11.43)" fill="#333957" font-size="22" font-family="CoconPro-Regular, CoconPro" letter-spacing="0.017em" opacity="0.9"><tspan x="0" y="0">à</tspan></text>
    <text id="c" transform="translate(185.349 141.18) rotate(9.82)" fill="#333957" font-size="22" font-family="CoconPro-Regular, CoconPro" letter-spacing="0.017em" opacity="0.9"><tspan x="0" y="0">c</tspan></text>
    <text id="e-3" data-name="e" transform="translate(197.021 143.202) rotate(8.77)" fill="#333957" font-size="22" font-family="CoconPro-Regular, CoconPro" letter-spacing="0.017em" opacity="0.9"><tspan x="0" y="0">e</tspan></text>
    <text id="u" transform="matrix(0.991, 0.134, -0.134, 0.991, 209.851, 145.188)" fill="#333957" font-size="22" font-family="CoconPro-Regular, CoconPro" letter-spacing="0.017em" opacity="0.9"><tspan x="0" y="0">u</tspan></text>
    <text id="x" transform="translate(223.769 147.07) rotate(6.76)" fill="#333957" font-size="22" font-family="CoconPro-Regular, CoconPro" letter-spacing="0.017em" opacity="0.9"><tspan x="0" y="0">x</tspan></text>
    <text id="q" transform="translate(241.731 149.138) rotate(5.53)" fill="#333957" font-size="22" font-family="CoconPro-Regular, CoconPro" letter-spacing="0.017em" opacity="0.9"><tspan x="0" y="0">q</tspan></text>
    <text id="u-2" data-name="u" transform="translate(256.06 150.529) rotate(4.68)" fill="#333957" font-size="22" font-family="CoconPro-Regular, CoconPro" letter-spacing="0.017em" opacity="0.9"><tspan x="0" y="0">u</tspan></text>
    <text id="i-3" data-name="i" transform="translate(270.087 151.651) rotate(4.1)" fill="#333957" font-size="22" font-family="CoconPro-Regular, CoconPro" letter-spacing="0.017em" opacity="0.9"><tspan x="0" y="0">i</tspan></text>
    <text id="c-2" data-name="c" transform="matrix(0.997, 0.077, -0.077, 0.997, 283.013, 152.494)" fill="#333957" font-size="22" font-family="CoconPro-Regular, CoconPro" letter-spacing="0.017em" opacity="0.9"><tspan x="0" y="0">c</tspan></text>
    <text id="r-3" data-name="r" transform="translate(294.837 153.43) rotate(5.85)" fill="#333957" font-size="22" font-family="CoconPro-Regular, CoconPro" letter-spacing="0.017em" opacity="0.9"><tspan x="0" y="0">r</tspan></text>
    <text id="o" transform="matrix(0.992, 0.128, -0.128, 0.992, 303.74, 154.309)" fill="#333957" font-size="22" font-family="CoconPro-Regular, CoconPro" letter-spacing="0.017em" opacity="0.9"><tspan x="0" y="0">o</tspan></text>
    <text id="i-4" data-name="i" transform="translate(317.599 156.147) rotate(8.8)" fill="#333957" font-size="22" font-family="CoconPro-Regular, CoconPro" letter-spacing="0.017em" opacity="0.9"><tspan x="0" y="0">i</tspan></text>
    <text id="e-4" data-name="e" transform="translate(325.225 157.295) rotate(10.12)" fill="#333957" font-size="22" font-family="CoconPro-Regular, CoconPro" letter-spacing="0.017em" opacity="0.9"><tspan x="0" y="0">e</tspan></text>
    <text id="n-3" data-name="n" transform="matrix(0.979, 0.205, -0.205, 0.979, 337.999, 159.567)" fill="#333957" font-size="22" font-family="CoconPro-Regular, CoconPro" letter-spacing="0.017em" opacity="0.9"><tspan x="0" y="0">n</tspan></text>
    <text id="t-3" data-name="t" transform="translate(351.73 162.458) rotate(13.22)" fill="#333957" font-size="22" font-family="CoconPro-Regular, CoconPro" letter-spacing="0.017em" opacity="0.9"><tspan x="0" y="0">t</tspan></text>
    <text id="e-5" data-name="e" transform="translate(365.898 165.843) rotate(15.14)" fill="#333957" font-size="22" font-family="CoconPro-Regular, CoconPro" letter-spacing="0.017em" opacity="0.9"><tspan x="0" y="0">e</tspan></text>
    <text id="n-4" data-name="n" transform="translate(378.39 169.226) rotate(16.68)" fill="#333957" font-size="22" font-family="CoconPro-Regular, CoconPro" letter-spacing="0.017em" opacity="0.9"><tspan x="0" y="0">n</tspan></text>
    <text id="l-2" data-name="l" transform="translate(396.813 174.88) rotate(18.44)" fill="#333957" font-size="22" font-family="CoconPro-Regular, CoconPro" letter-spacing="0.017em" opacity="0.9"><tspan x="0" y="0">l</tspan></text>
    <text id="a-4" data-name="a" transform="matrix(0.943, 0.334, -0.334, 0.943, 403.979, 177.245)" fill="#333957" font-size="22" font-family="CoconPro-Regular, CoconPro" letter-spacing="0.017em" opacity="0.9"><tspan x="0" y="0">a</tspan></text>
    <text id="b" transform="translate(420.392 183.122) rotate(21.42)" fill="#333957" font-size="22" font-family="CoconPro-Regular, CoconPro" letter-spacing="0.017em" opacity="0.9"><tspan x="0" y="0">b</tspan></text>
    <text id="e-6" data-name="e" transform="translate(434.063 188.495) rotate(22.8)" fill="#333957" font-size="22" font-family="CoconPro-Regular, CoconPro" letter-spacing="0.017em" opacity="0.9"><tspan x="0" y="0">e</tspan></text>
    <text id="a-5" data-name="a" transform="translate(446.026 193.528) rotate(24.02)" fill="#333957" font-size="22" font-family="CoconPro-Regular, CoconPro" letter-spacing="0.017em" opacity="0.9"><tspan x="0" y="0">a</tspan></text>
    <text id="u-3" data-name="u" transform="translate(457.263 198.527) rotate(25.26)" fill="#333957" font-size="22" font-family="CoconPro-Regular, CoconPro" letter-spacing="0.017em" opacity="0.9"><tspan x="0" y="0">u</tspan></text>
    <text id="t-4" data-name="t" transform="translate(469.984 204.554) rotate(26.33)" fill="#333957" font-size="22" font-family="CoconPro-Regular, CoconPro" letter-spacing="0.017em" opacity="0.9"><tspan x="0" y="0">t</tspan></text>
    <text id="é" transform="translate(478.412 208.709) rotate(27.34)" fill="#333957" font-size="22" font-family="CoconPro-Regular, CoconPro" letter-spacing="0.017em" opacity="0.9"><tspan x="0" y="0">é</tspan></text>
    <text id="d" transform="translate(494.494 217.09) rotate(28.98)" fill="#333957" font-size="22" font-family="CoconPro-Regular, CoconPro" letter-spacing="0.017em" opacity="0.9"><tspan x="0" y="0">d</tspan></text>
    <text id="e-7" data-name="e" transform="matrix(0.865, 0.502, -0.502, 0.865, 507.028, 224.042)" fill="#333957" font-size="22" font-family="CoconPro-Regular, CoconPro" letter-spacing="0.017em" opacity="0.9"><tspan x="0" y="0">e</tspan></text>
    <text id="l-3" data-name="l" transform="translate(522.698 233.24) rotate(31.42)" fill="#333957" font-size="22" font-family="CoconPro-Regular, CoconPro" letter-spacing="0.017em" opacity="0.9"><tspan x="0" y="0">l</tspan></text>
    <text id="e-8" data-name="e" transform="matrix(0.846, 0.534, -0.534, 0.846, 529.16, 237.173)" fill="#333957" font-size="22" font-family="CoconPro-Regular, CoconPro" letter-spacing="0.017em" opacity="0.9"><tspan x="0" y="0">e</tspan></text>
    <text id="u-4" data-name="u" transform="matrix(0.835, 0.55, -0.55, 0.835, 540.161, 244.102)" fill="#333957" font-size="22" font-family="CoconPro-Regular, CoconPro" letter-spacing="0.017em" opacity="0.9"><tspan x="0" y="0">u</tspan></text>
    <text id="r-4" data-name="r" transform="matrix(0.826, 0.563, -0.563, 0.826, 551.874, 251.849)" fill="#333957" font-size="22" font-family="CoconPro-Regular, CoconPro" letter-spacing="0.017em" opacity="0.9"><tspan x="0" y="0">r</tspan></text>
    <text id="s" transform="matrix(0.818, 0.575, -0.575, 0.818, 559.295, 256.893)" fill="#333957" font-size="22" font-family="CoconPro-Regular, CoconPro" letter-spacing="0.017em" opacity="0.9"><tspan x="0" y="0">s</tspan></text>
    <text id="r-5" data-name="r" transform="matrix(0.805, 0.593, -0.593, 0.805, 572.87, 266.525)" fill="#333957" font-size="22" font-family="CoconPro-Regular, CoconPro" letter-spacing="0.017em" opacity="0.9"><tspan x="0" y="0">r</tspan></text>
    <text id="ê" transform="translate(580.116 271.839) rotate(37.27)" fill="#333957" font-size="22" font-family="CoconPro-Regular, CoconPro" letter-spacing="0.017em" opacity="0.9"><tspan x="0" y="0">ê</tspan></text>
    <text id="v-2" data-name="v" transform="matrix(0.784, 0.62, -0.62, 0.784, 590.427, 279.692)" fill="#333957" font-size="22" font-family="CoconPro-Regular, CoconPro" letter-spacing="0.017em" opacity="0.9"><tspan x="0" y="0">v</tspan></text>
    <text id="e-9" data-name="e" transform="translate(599.884 287.16) rotate(39.46)" fill="#333957" font-size="22" font-family="CoconPro-Regular, CoconPro" letter-spacing="0.017em" opacity="0.9"><tspan x="0" y="0">e</tspan></text>
    <text id="s-2" data-name="s" transform="matrix(0.758, 0.652, -0.652, 0.758, 609.892, 295.4)" fill="#333957" font-size="22" font-family="CoconPro-Regular, CoconPro" letter-spacing="0.017em" opacity="0.9"><tspan x="0" y="0">s</tspan></text>
    <text id="_2" data-name="~" transform="matrix(0.727, 0.686, -0.686, 0.727, 622.33, 306.129)" fill="#333957" font-size="22" font-family="CoconPro-Regular, CoconPro" letter-spacing="0.017em" opacity="0.9"><tspan x="0" y="0">~</tspan></text>
    <text id="E-10" data-name="E" transform="matrix(0.618, 0.786, -0.786, 0.618, 634.466, 319.919)" fill="#333957" font-size="22" font-family="CoconPro-Regular, CoconPro" letter-spacing="0.017em" opacity="0.9"><tspan x="0" y="0">E</tspan></text>
    <text id="l-4" data-name="l" transform="matrix(0.628, 0.778, -0.778, 0.628, 642.542, 330.169)" fill="#333957" font-size="22" font-family="CoconPro-Regular, CoconPro" letter-spacing="0.017em" opacity="0.9"><tspan x="0" y="0">l</tspan></text>
    <text id="e-11" data-name="e" transform="matrix(0.638, 0.77, -0.77, 0.638, 647.297, 336.081)" fill="#333957" font-size="22" font-family="CoconPro-Regular, CoconPro" letter-spacing="0.017em" opacity="0.9"><tspan x="0" y="0">e</tspan></text>
    <text id="a-6" data-name="a" transform="translate(655.559 346.062) rotate(49.52)" fill="#333957" font-size="22" font-family="CoconPro-Regular, CoconPro" letter-spacing="0.017em" opacity="0.9"><tspan x="0" y="0">a</tspan></text>
    <text id="n-5" data-name="n" transform="matrix(0.661, 0.75, -0.75, 0.661, 663.564, 355.445)" fill="#333957" font-size="22" font-family="CoconPro-Regular, CoconPro" letter-spacing="0.017em" opacity="0.9"><tspan x="0" y="0">n</tspan></text>
    <text id="o-2" data-name="o" transform="translate(672.854 365.998) rotate(47.61)" fill="#333957" font-size="22" font-family="CoconPro-Regular, CoconPro" letter-spacing="0.017em" opacity="0.9"><tspan x="0" y="0">o</tspan></text>
    <text id="r-6" data-name="r" transform="matrix(0.685, 0.728, -0.728, 0.685, 682.309, 376.329)" fill="#333957" font-size="22" font-family="CoconPro-Regular, CoconPro" letter-spacing="0.017em" opacity="0.9"><tspan x="0" y="0">r</tspan></text>
    <text id="R-7" data-name="R" transform="translate(692.018 386.611) rotate(45.38)" fill="#333957" font-size="22" font-family="CoconPro-Regular, CoconPro" letter-spacing="0.017em" opacity="0.9"><tspan x="0" y="0">R</tspan></text>
    <text id="o-3" data-name="o" transform="translate(701.365 396.086) rotate(44.18)" fill="#333957" font-size="22" font-family="CoconPro-Regular, CoconPro" letter-spacing="0.017em" opacity="0.9"><tspan x="0" y="0">o</tspan></text>
    <text id="o-4" data-name="o" transform="translate(711.353 405.806) rotate(42.78)" fill="#333957" font-size="22" font-family="CoconPro-Regular, CoconPro" letter-spacing="0.017em" opacity="0.9"><tspan x="0" y="0">o</tspan></text>
    <text id="s-3" data-name="s" transform="translate(721.622 415.293) rotate(41.36)" fill="#333957" font-size="22" font-family="CoconPro-Regular, CoconPro" letter-spacing="0.017em" opacity="0.9"><tspan x="0" y="0">s</tspan></text>
    <text id="e-12" data-name="e" transform="translate(730.171 422.837) rotate(39.83)" fill="#333957" font-size="22" font-family="CoconPro-Regular, CoconPro" letter-spacing="0.017em" opacity="0.9"><tspan x="0" y="0">e</tspan></text>
    <text id="v-3" data-name="v" transform="translate(740.284 431.27) rotate(38.02)" fill="#333957" font-size="22" font-family="CoconPro-Regular, CoconPro" letter-spacing="0.017em" opacity="0.9"><tspan x="0" y="0">v</tspan></text>
    <text id="e-13" data-name="e" transform="matrix(0.81, 0.586, -0.586, 0.81, 750.067, 438.928)" fill="#333957" font-size="22" font-family="CoconPro-Regular, CoconPro" letter-spacing="0.017em" opacity="0.9"><tspan x="0" y="0">e</tspan></text>
    <text id="l-5" data-name="l" transform="translate(760.95 446.74) rotate(33.83)" fill="#333957" font-size="22" font-family="CoconPro-Regular, CoconPro" letter-spacing="0.017em" opacity="0.9"><tspan x="0" y="0">l</tspan></text>
    <text id="t-5" data-name="t" transform="matrix(0.849, 0.528, -0.528, 0.849, 767.53, 451.174)" fill="#333957" font-size="22" font-family="CoconPro-Regular, CoconPro" letter-spacing="0.017em" opacity="0.9"><tspan x="0" y="0">t</tspan></text>
  </g>
</svg>
