<svg xmlns="http://www.w3.org/2000/svg" xmlns:xlink="http://www.w3.org/1999/xlink" width="1920" height="1082" viewBox="0 0 1920 1082">
  <defs>
    <clipPath id="clip-path">
      <rect id="Rectangle_578" data-name="Rectangle 578" width="1920" height="1082" fill="#fff"/>
    </clipPath>
  </defs>
  <g id="Groupe_de_masques_1" data-name="Groupe de masques 1" clip-path="url(#clip-path)">
    <g id="Fond_bulles" data-name="Fond bulles" transform="translate(127.866 120.776)" opacity="0.573">
      <path id="Tracé_42" data-name="Tracé 42" d="M.09,606.18c57.128-56.524,109.8-119.331,190.663-144.589,61.648-19.25,158.146,7.087,174.062,49.162,16.686,44.128-4.391,84.955-27.932,120.558-87.2,131.918-37.678,269.293,80.3,345.6,52.223,33.762,103.61,70.422,125.866,133.4,26.9,76.176-1.285,124.133-96.349,159-149.536,54.81-298.514,54.916-446.593-5.881V606.18Z" transform="translate(-71.914 -495.372) rotate(9)" fill="#fde6e3"/>
      <path id="Tracé_45" data-name="Tracé 45" d="M318.347,814.731c-36.865-9.963-67.183-28.263-86.761-59.808-47.327-76.264-24.36-148.051,31.974-201.97,28.693-27.456,66.966-40.832,104.311-55.028C410,481.9,423.663,445.373,438.536,410.459c15.322-35.98,26-73.313,21.682-112.547-2.863-26.06-10.292-51.8-11.468-77.863-1.315-28.81,20.228-42.934,47.079-52.307,40.455-14.124,79.3-2.462,115.516,9.934,56.768,19.451,104.853,52.7,141.238,98.955,8.76,11.144,5.185,24.361,5.308,35.951,1.145,98.509-1.176,197.075,1.548,295.527,1.114,40.443-23.106,64.876-49.029,89.625q-52.674,50.3-121.1,81.26c-44.649,20.287-91.481,32.9-139.938,40.026-41.956,6.177-84.393,6.364-126.272-2.822-1.578-.49-3.157-.993-4.736-1.483Z" transform="translate(1188.084 61.297)" fill="#dfe6e4"/>
      <path id="Tracé_27636" data-name="Tracé 27636" d="M1278.09,898.084c-50.087,31.938-95.745,70.492-151.077,94.489-132.117,57.292-269.436,60.114-418.837,35.42-189.47-31.311-347.941-130.014-540.55-148.02C98.193,873.5,31.3,889.272,8.768,944.545c-20.637,50.605-4.3,102.674,47.206,146.906,140.2,120.4,324.768,160.837,513.679,190.058,125.281,19.364,249.617-4.806,365.7-43.083,116.9-38.555,228.722-87.28,342.739-131.546V898.119Z" transform="translate(256.989 -1032.714) rotate(-13)" fill="#ffeed2"/>
    </g>
  </g>
</svg>
