<svg id="Logo" xmlns="http://www.w3.org/2000/svg" width="388.697" height="165.165" viewBox="0 0 388.697 165.165">
  <g id="Groupe_5" data-name="Groupe 5" transform="translate(202.26)">
    <path id="Tracé_55" data-name="Tracé 55" d="M318.66,1.309c1.664-.309,3.315-.7,4.993-.906,13.765-1.7,18.4,1.859,19.858,15.369,2.7-2.819.49-6.483,2.631-9.771,5.3-3.45,11.543-8.51,18.751-4.557,8.08,4.429,6.114,12.61,6.47,19.429C364.128,25.926,357,29.08,348.4,29.067c-.537-2.966-.128-6.315-4.127-7.892-7.228-2.127-11.932.6-15.234,6.04a12.052,12.052,0,0,0-1.6.436c-3.59-8.617-8.758-16.838-8.772-26.348Z" transform="translate(-307.068 -0.001)" fill="#f0a79e"/>
    <path id="Tracé_56" data-name="Tracé 56" d="M340.656,107.379c-1.53,17.476,6.342,32.865,15.134,48.045-4.651-2.765-15.449-20.221-16.281-25.623-3.362-21.878-5.134-43.75.336-65.481,1.208-1.805,2.362-.57,3.523.094-3.215,11.778-3.2,23.845-3.45,35.891-.55,2.409-.98,4.819.738,7.074Z" transform="translate(-312.883 -20.845)" fill="#9db1aa"/>
    <path id="Tracé_57" data-name="Tracé 57" d="M312.764,2.91c.013,9.5,5.181,17.731,8.772,26.348-.718,1.114-1.443,2.228-2.161,3.349-7.53-4.221-10.4-11.818-16-17.483-3.208-3.248-2.242-7.912.812-11.671,2.846-1.174,6.208,3.382,8.577-.544Z" transform="translate(-301.387 -0.958)" fill="#fde6e3"/>
    <path id="Tracé_58" data-name="Tracé 58" d="M327.495,41.375c.718-1.114,1.443-2.228,2.161-3.349a11.779,11.779,0,0,1,1.6-.436c2.879,3.235.711,7.664,3.228,10.886,5.738,2.047,9.074-1.4,10.53-4.6,1.671-3.671,1.081-8.181,1.477-12.322,4,1.584,3.6,4.926,4.127,7.892-.3,6.4-6.819,9.235-10.053,13.953-1.282-.732-2.557-2.1-3.886-.107-5.825-2.322-12.181-4.322-9.188-11.919Z" transform="translate(-309.721 -10.377)" fill="#e9ac41"/>
    <path id="Tracé_59" data-name="Tracé 59" d="M341.59,116.555c-1.893-2.49-1.416-5.141-.812-7.805C342.59,111.247,342.348,113.884,341.59,116.555Z" transform="translate(-314.166 -35.767)" fill="#dfe6e4"/>
    <path id="Tracé_60" data-name="Tracé 60" d="M347.754,31.2c-.4,4.141.195,8.651-1.476,12.322-1.456,3.2-4.8,6.658-10.53,4.6-2.517-3.221-.349-7.651-3.228-10.886,3.3-5.436,8.006-8.168,15.234-6.04Z" transform="translate(-311.626 -10.023)" fill="#f7c6c0"/>
  </g>
  <path id="Tracé_38613" data-name="Tracé 38613" d="M16.031-9.545a5.875,5.875,0,0,0-5.98-6.026H8.51a15.619,15.619,0,0,0-3.565.46L2.53-3.818a6.906,6.906,0,0,0-.069.989c0,2.507,2.6,2.944,3.22,2.944H7.406c4.991,0,8.579-4.554,8.625-9.568Zm-2.024.138c-.023,4.094-2.3,7.82-6.555,7.82H6.417c-.989,0-2-.276-2-1.5a2.91,2.91,0,0,1,.069-.644l2.139-9.982a10.36,10.36,0,0,1,2.07-.207h.92C12.305-13.915,14.007-12.374,14.007-9.407Zm14.858.6c0-2.369-2.07-3.588-4.14-3.588-5.865,0-6.946,6.417-6.946,7.268v.092C17.779-.115,21.5.23,22.632.23c1.426,0,4.025-.345,4.37-2.162l.161-.828h-.115a6.232,6.232,0,0,1-3.956,1.288A2.99,2.99,0,0,1,19.8-4.738a3.457,3.457,0,0,1,.046-.46h1.173C26.91-5.2,28.865-6.187,28.865-8.809Zm-1.909.115c0,1.035-1.058,1.61-2.438,1.748-.828.092-2.139.161-3.5.184l-1.035.023.161-.552c.138-.506,1.311-3.45,4.347-3.45C25.507-10.741,26.956-10.465,26.956-8.694ZM40.2-10.488c0-1.5-2.53-1.886-3.634-1.886-4.14,0-5.29,2.576-5.29,3.933,0,1.656,1.541,2.346,3.1,2.852s2.668.874,2.668,1.932c-.023,1.909-1.564,2.139-3.082,2.139A4.579,4.579,0,0,1,30.429-2.9H30.36l-.115.529a2.652,2.652,0,0,0-.069.6c0,1.587,2.484,2,3.657,2,2.507,0,5.29-1.1,5.29-4.071,0-1.656-1.541-2.53-3.381-3.1C34.155-7.429,33.35-7.751,33.35-8.6c.023-1.748,1.909-2.047,3.266-2.047.989,0,2.691.368,3.289,1.288h.069l.161-.575A2.268,2.268,0,0,0,40.2-10.488Zm6.762,8.9h-.989c-.529,0-1.679-.138-1.679-1.242a5.1,5.1,0,0,1,.069-.851l1.472-6.946a2.013,2.013,0,0,0,.046-.368,1.086,1.086,0,0,0-1.15-1.15H44.16l-1.794,8.51a5.324,5.324,0,0,0-.115,1.058c0,1.817,1.127,2.691,2.944,2.691C46.3.115,46.759-.621,46.966-1.587Zm.046-13.777a1.268,1.268,0,0,0-1.242-1.311,1.306,1.306,0,0,0-1.288,1.311,1.307,1.307,0,0,0,1.265,1.334A1.307,1.307,0,0,0,47.012-15.364ZM60.237-8.28c0-3.795-2.852-4.117-4.232-4.117-5.451,0-6.647,5.474-6.647,6.348,0,4.048,3.059,4.531,4.347,4.531a4.6,4.6,0,0,0,3.864-2.208c-.092.437-.161.92-.207,1.288-.023.184-.138.736-.207,1.058A4.314,4.314,0,0,1,52.67,2.208,4.547,4.547,0,0,1,48.944.874h-.069l-.138.6a1.722,1.722,0,0,0-.046.483C48.691,3.519,51.152,4,52.279,4a6.507,6.507,0,0,0,6.762-5.5c.161-.713.184-1.518.345-2.231.115-.552.368-1.472.506-2.07A11.152,11.152,0,0,0,60.237-8.28Zm-1.932.092c0,2.6-1.541,4.991-4.232,4.991-.943,0-2.645-.184-2.645-3.036,0-1.012,1.058-4.462,4.37-4.462C56.948-10.695,58.305-10.465,58.305-8.188ZM73.6-8.418c0-3.5-3.427-3.956-4.393-3.956-3.266,0-5.175,2-5.888,5.29L62.054-1.311a2.013,2.013,0,0,0-.046.368A.883.883,0,0,0,63,0h.736l1.449-6.946c.276-1.311.966-3.7,3.818-3.7.759,0,2.645.115,2.645,2.254a7.127,7.127,0,0,1-.184,1.449l-1.219,5.7a2.231,2.231,0,0,0-.023.391c0,.667.46.851,1.035.851h.69l1.472-7.015A6.675,6.675,0,0,0,73.6-8.418Zm13.386-.391c0-2.369-2.07-3.588-4.14-3.588C76.981-12.4,75.9-5.98,75.9-5.129v.092C75.9-.115,79.626.23,80.753.23c1.426,0,4.025-.345,4.37-2.162l.161-.828h-.115a6.232,6.232,0,0,1-3.956,1.288,2.99,2.99,0,0,1-3.289-3.266,3.456,3.456,0,0,1,.046-.46h1.173C85.031-5.2,86.986-6.187,86.986-8.809Zm-1.909.115c0,1.035-1.058,1.61-2.438,1.748-.828.092-2.139.161-3.5.184l-1.035.023.161-.552c.138-.506,1.311-3.45,4.347-3.45C83.628-10.741,85.077-10.465,85.077-8.694Zm11.73-2.254c0-1.035-1.5-1.2-2.231-1.2-3.243,0-4.439,2.944-4.9,5.06l-1.265,5.8a1.741,1.741,0,0,0-.023.345.853.853,0,0,0,.92.943h.828l1.449-6.831c.345-1.656.92-3.588,3.082-3.588a2.455,2.455,0,0,1,1.794.621h.115l.184-.736A1.274,1.274,0,0,0,96.807-10.948ZM117-14.513c0-.667-.414-.943-1.012-.943h-.736l-1.817,8.487c-.414,1.955-1.357,5.4-5.336,5.4-1.2,0-3.427-.184-3.427-3.289a10.668,10.668,0,0,1,.3-2.3l1.426-6.762a3.111,3.111,0,0,0,.092-.667c0-.736-.483-.874-1.1-.874h-.667l-1.794,8.487a10.774,10.774,0,0,0-.23,2.277c0,4.324,3.634,4.922,5.267,4.922,5.612,0,7.015-4.991,7.521-7.383l1.472-6.854A1.887,1.887,0,0,0,117-14.513Zm14.651-.253c0-.368-.184-.69-.575-.69h-.943c-1.265,2.277-3.8,4.531-5.7,6.21l-1.748-3.7c-.391-.828-1.173-2.507-2.185-2.507h-.9a30.172,30.172,0,0,0,1.771,3.979L123.05-8.1C118.059-3.588,116.679-2,116.679-.805c0,.391.184.805.621.805h.989c.621-2.208,3.887-5.083,5.52-6.532l2,4.048c.6,1.242,1.288,2.668,2.783,2.668A1.751,1.751,0,0,0,129.6-.069a21.185,21.185,0,0,1-3.128-4.991l-1.265-2.668.161-.138C126.73-9.039,131.629-13.317,131.652-14.766Zm20.93.253c0-.667-.414-.943-1.012-.943h-.736l-1.817,8.487c-.414,1.955-1.357,5.4-5.336,5.4-1.2,0-3.427-.184-3.427-3.289a10.668,10.668,0,0,1,.3-2.3l1.426-6.762a3.11,3.11,0,0,0,.092-.667c0-.736-.483-.874-1.1-.874H140.3l-1.794,8.487a10.775,10.775,0,0,0-.23,2.277c0,4.324,3.634,4.922,5.267,4.922,5.612,0,7.015-4.991,7.521-7.383l1.472-6.854A1.887,1.887,0,0,0,152.582-14.513Zm5.75-.161a.874.874,0,0,0-.943-.782h-1.012l-2.944,14.03a1.936,1.936,0,0,0-.069.414c0,.736.506,1.012,1.15,1.012h.736l3.059-14.352A1.415,1.415,0,0,0,158.332-14.674Z" transform="translate(228.254 161.163)" fill="#333957"/>
  <g id="Groupe_7" data-name="Groupe 7" transform="translate(0 14.435)">
    <path id="Tracé_61" data-name="Tracé 61" d="M58.243,158.945c-3.349,0-4.906-1.718-4.906-5.966,0-8.745-1.309-30.986-3.027-40.958-1.309,2.369-2.778,6.3-4.906,12.342L36.74,149.295a80.5,80.5,0,0,1-4.007,9.644H31.016c-2.208,0-4.906-1.718-9.154-14.63L14.916,123.3a72.637,72.637,0,0,0-4.738-11.2c-2.289,15.288-2.651,53.549-2.812,65.4H5.157c-2.7,0-5.147-2.04-5.147-5.966,0-15.369,2.322-56.327,4.45-68.179H7.238c7.194,0,10.3,6.456,12.342,12.429L26.935,137.6a111.034,111.034,0,0,1,3.268,11.12c.9-3.268,2.289-7.523,3.678-11.282l7.194-20.026a61.423,61.423,0,0,1,7.114-14.06h1.96c4.986,0,7.114,3.678,7.845,10.543,1.55,14.06,2.7,32.046,3.027,45.046Z" transform="translate(-0.01 -48.426)" fill="#b595c0"/>
    <path id="Tracé_38611" data-name="Tracé 38611" d="M57.81-32.618c0-19.27-13.066-31.772-28.482-31.772h-7.99A69,69,0,0,0,7.05-62.51v49.35C7.05-4.982,12.6.47,23.406.47H29.14C45.872.47,57.81-12.784,57.81-32.618ZM49.162-31.3c0,14.288-7.708,24.064-20.962,24.064H24.722C18.8-7.238,15.7-9.682,15.7-15.51V-55.836a48.107,48.107,0,0,1,7.9-.846H27.26C40.8-56.682,49.162-48.5,49.162-31.3Z" transform="translate(281.393 101)" fill="#b595c0"/>
    <path id="Tracé_38612" data-name="Tracé 38612" d="M44.978-6.106V-8.342A40.826,40.826,0,0,1,33.97-6.708H29.5c-11.61,0-16-3.956-16-15.738v-4.3H33.8c3.526,0,5.074-1.892,5.074-4.214v-2.494H13.5a79.087,79.087,0,0,1,2.064-17.8H39.818c4.386,0,5.676-1.978,5.676-4.042V-58.48H14.964c-3.87,0-6.02,2.494-7.4,8.17A75.827,75.827,0,0,0,5.59-34.486v10.578C5.59-8,12.212.43,26.832.43h7.224C43.6.43,44.978-2.064,44.978-6.106Z" transform="translate(343.203 114.093)" fill="#ea877b"/>
    <path id="Tracé_38607" data-name="Tracé 38607" d="M58.782,0c-3.434-22.22-14.241-50.4-20.3-61-2.929-5.151-5.454-7.676-9.292-7.676h-3.03C15.554-55.752,1.919-13.938,1.919-4.444,1.919-1.313,3.131,0,6.06,0H9.6c1.01-5.656,2.828-13.13,4.141-18.18H45.854c.808,3.333,2.323,8.585,3.232,13.332C49.692-1.717,51.51,0,55.449,0ZM43.531-25.553H15.857C19.392-38.279,23.23-48.884,29.694-60.4A159.745,159.745,0,0,1,43.531-25.553Z" transform="translate(62.193 121.986)" fill="#e9ac41"/>
    <path id="Tracé_38608" data-name="Tracé 38608" d="M45.584-56.848v-3.08H5.544c-3.7,0-5.1,2.112-5.1,4.4v2.992H18.656V-5.1c0,3.96,1.76,5.1,5.192,5.1H26.84V-52.536H40.92A4.909,4.909,0,0,0,45.584-56.848Z" transform="translate(115.003 119.885)" fill="#bdccd4"/>
    <path id="Tracé_38609" data-name="Tracé 38609" d="M49.692,0V-51.988a3.83,3.83,0,0,0-3.854-3.772H42.23v23.206H14.1V-51.988a3.559,3.559,0,0,0-3.526-3.772H6.56V-5.494C6.56-1.64,9.1,0,11.316,0H14.1V-25.666H42.23V-5.494C42.23-1.722,44.854,0,47.15,0Z" transform="translate(160.478 106.369)" fill="#ea877b"/>
    <path id="Tracé_38610" data-name="Tracé 38610" d="M46.128-6.417V-8.928a50.976,50.976,0,0,1-12.369,1.4H30.225C18.693-7.533,15.9-10.974,15.9-24.459v-32.55c0-4.929-2.046-6.324-5.394-6.324H7.44v41.106C7.44-7.719,13.764.465,28.458.465h5.3C44.268.465,46.128-2.6,46.128-6.417Z" transform="translate(241.583 110.174)" fill="#e9ac41"/>
  </g>
</svg>
