<?xml version="1.0" encoding="UTF-8"?>
<svg id="Calque_2" data-name="Calque 2" xmlns="http://www.w3.org/2000/svg" viewBox="0 0 584.24 250.82">
  <defs>
    <style>
      .cls-1 {
        fill: #333957;
        font-family: CoconPro-LightIta, CoconPro;
        font-size: 35.2px;
        font-style: italic;
      }

      .cls-1, .cls-2, .cls-3, .cls-4, .cls-5, .cls-6, .cls-7 {
        font-weight: 300;
      }

      .cls-2 {
        font-size: 151.32px;
      }

      .cls-2, .cls-8, .cls-6 {
        fill: #e9ac41;
      }

      .cls-2, .cls-3, .cls-4, .cls-5, .cls-6, .cls-7 {
        font-family: CoconPro-Light, CoconPro;
      }

      .cls-9 {
        fill: #f7c6c0;
      }

      .cls-10 {
        fill: #f0a79e;
      }

      .cls-11 {
        fill: #fde6e3;
      }

      .cls-12, .cls-7 {
        fill: #b595c0;
      }

      .cls-13 {
        fill: #9db1aa;
      }

      .cls-14 {
        fill: #dfe6e4;
      }

      .cls-3 {
        font-size: 130.08px;
      }

      .cls-3, .cls-4 {
        fill: #ea877b;
      }

      .cls-4 {
        font-size: 123.32px;
      }

      .cls-5 {
        fill: #bdccd4;
        font-size: 134.68px;
      }

      .cls-6 {
        font-size: 140.46px;
      }

      .cls-7 {
        font-size: 141.06px;
      }
    </style>
  </defs>
  <g id="Calque_1-2" data-name="Calque 1">
    <g>
      <path class="cls-10" d="m318.66,1.95c2.48-.46,4.94-1.04,7.44-1.35,20.51-2.53,27.41,2.77,29.59,22.9,4.03-4.2.73-9.66,3.92-14.56,7.89-5.14,17.2-12.68,27.94-6.79,12.04,6.6,9.11,18.79,9.64,28.95-10.78,7.53-21.4,12.23-34.22,12.21-.8-4.42-.19-9.41-6.15-11.76-10.77-3.17-17.78.9-22.7,9-.81.16-1.61.38-2.39.65-5.35-12.84-13.05-25.09-13.07-39.26Z"/>
      <path class="cls-13" d="m342.77,128.94c-2.28,26.04,9.45,48.97,22.55,71.59-6.93-4.12-23.02-30.13-24.26-38.18-5.01-32.6-7.65-65.19.5-97.57,1.8-2.69,3.52-.85,5.25.14-4.79,17.55-4.77,35.53-5.14,53.48-.82,3.59-1.46,7.18,1.1,10.54Z"/>
      <path class="cls-11" d="m318.34,2.91c.02,14.16,7.72,26.42,13.07,39.26-1.07,1.66-2.15,3.32-3.22,4.99-11.22-6.29-15.5-17.61-23.84-26.05-4.78-4.84-3.34-11.79,1.21-17.39,4.24-1.75,9.25,5.04,12.78-.81Z"/>
      <path class="cls-8" d="m327.87,46.19c1.07-1.66,2.15-3.32,3.22-4.99.78-.27,1.57-.49,2.39-.65,4.29,4.82,1.06,11.42,4.81,16.22,8.55,3.05,13.52-2.09,15.69-6.86,2.49-5.47,1.61-12.19,2.2-18.36,5.96,2.36,5.36,7.34,6.15,11.76-.44,9.54-10.16,13.76-14.98,20.79-1.91-1.09-3.81-3.13-5.79-.16-8.68-3.46-18.15-6.44-13.69-17.76Z"/>
      <path class="cls-14" d="m342.25,120.38c-2.82-3.71-2.11-7.66-1.21-11.63,2.7,3.72,2.34,7.65,1.21,11.63Z"/>
      <path class="cls-9" d="m355.22,31.55c-.59,6.17.29,12.89-2.2,18.36-2.17,4.77-7.15,9.92-15.69,6.86-3.75-4.8-.52-11.4-4.81-16.22,4.92-8.1,11.93-12.17,22.7-9Z"/>
    </g>
    <text class="cls-1" transform="translate(340.12 240.89)"><tspan x="0" y="0">Designer UX UI</tspan></text>
    <path class="cls-12" d="m86.78,186.19c-4.99,0-7.31-2.56-7.31-8.89,0-13.03-1.95-46.17-4.51-61.03-1.95,3.53-4.14,9.38-7.31,18.39l-12.91,37.15c-1.71,4.99-4.14,10.84-5.97,14.37h-2.56c-3.29,0-7.31-2.56-13.64-21.8l-10.35-31.31c-1.83-5.73-4.75-12.42-7.06-16.69-3.41,22.78-3.95,79.79-4.19,97.45h-3.29c-4.02,0-7.67-3.04-7.67-8.89,0-22.9,3.46-83.93,6.63-101.59h4.14c10.72,0,15.35,9.62,18.39,18.52l10.96,32.52c1.83,5.48,4.02,12.3,4.87,16.57,1.34-4.87,3.41-11.21,5.48-16.81l10.72-29.84c3.29-9.14,8.28-18.03,10.6-20.95h2.92c7.43,0,10.6,5.48,11.69,15.71,2.31,20.95,4.02,47.75,4.51,67.12h-4.14Z"/>
    <text class="cls-7" transform="translate(419.3 172.51)"><tspan x="0" y="0">D</tspan></text>
    <text class="cls-3" transform="translate(511.4 193.43)"><tspan x="0" y="0">E</tspan></text>
    <text class="cls-2" transform="translate(92.68 204.35)"><tspan x="0" y="0">A</tspan></text>
    <text class="cls-5" transform="translate(171.37 204.08)"><tspan x="0" y="0">T</tspan></text>
    <text class="cls-4" transform="translate(239.13 180.88)"><tspan x="0" y="0">H</tspan></text>
    <text class="cls-6" transform="translate(359.98 186.67)"><tspan x="0" y="0">L</tspan></text>
  </g>
</svg>